/* XPM */
static char *fro_resized[] = {
/* columns rows colors chars-per-pixel */
"64 64 238 2 ",
"   c None",
".  c #0A0E0E",
"X  c #160B05",
"o  c #1C120A",
"O  c #1A1D1D",
"+  c #171917",
"@  c #0D1111",
"#  c #24140A",
"$  c #2B160A",
"%  c #2D1A0C",
"&  c #231409",
"*  c #331C0C",
"=  c #381A0D",
"-  c #291D16",
";  c #331D13",
":  c #1C211E",
">  c #3B210E",
",  c #2B221D",
"<  c #3C2A1C",
"1  c #372417",
"2  c #1C2424",
"3  c #1B2A29",
"4  c #173535",
"5  c #222D2C",
"6  c #2B2D2C",
"7  c #282724",
"8  c #382D26",
"9  c #28332C",
"0  c #37322D",
"q  c #243232",
"w  c #2A3333",
"e  c #2C3C3C",
"r  c #273939",
"t  c #343C3D",
"y  c #383837",
"u  c #2C2F30",
"i  c #1C1F20",
"p  c #4E1A0F",
"a  c #6D1C17",
"s  c #432512",
"d  c #4C2A13",
"f  c #452A1A",
"g  c #522E15",
"h  c #5A2915",
"j  c #5A3216",
"k  c #5E3419",
"l  c #57331A",
"z  c #472916",
"x  c #672418",
"c  c #613619",
"v  c #65391B",
"b  c #6C3C1C",
"n  c #713E1D",
"m  c #732218",
"M  c #442E23",
"N  c #43352C",
"B  c #4B3426",
"V  c #5A3C2B",
"C  c #553828",
"Z  c #473B36",
"A  c #543C35",
"S  c #562E22",
"D  c #643A27",
"F  c #70342A",
"G  c #34403E",
"H  c #75411E",
"J  c #79441F",
"K  c #4C423B",
"L  c #5A4337",
"P  c #5D412C",
"I  c #65442B",
"U  c #7C4520",
"Y  c #784624",
"T  c #684836",
"R  c #744B37",
"E  c #765136",
"W  c #795438",
"Q  c #313F40",
"!  c #135554",
"~  c #2C4344",
"^  c #344545",
"/  c #3D4344",
"(  c #3A4949",
")  c #3C5655",
"_  c #375251",
"`  c #156667",
"'  c #137779",
"]  c #1B6E72",
"[  c #3A6368",
"{  c #347377",
"}  c #424343",
"|  c #444B4B",
" . c #494845",
".. c #425454",
"X. c #4C5253",
"o. c #435956",
"O. c #445B5A",
"+. c #4B5B5A",
"@. c #525556",
"#. c #585A5B",
"$. c #514E4C",
"%. c #644C44",
"&. c #6A5348",
"*. c #78594B",
"=. c #675C57",
"-. c #775952",
";. c #49615D",
":. c #57625F",
">. c #68625B",
",. c #74635A",
"<. c #4C6562",
"1. c #476768",
"2. c #566768",
"3. c #4A7373",
"4. c #527474",
"5. c #5C7B7B",
"6. c #577676",
"7. c #4E7070",
"8. c #676869",
"9. c #677979",
"0. c #777A7D",
"q. c #737476",
"w. c #756D69",
"e. c #86251C",
"r. c #94281F",
"t. c #992B26",
"y. c #AD2D2A",
"u. c #844A23",
"i. c #8B4E25",
"p. c #824924",
"a. c #8E5027",
"s. c #925127",
"d. c #955429",
"f. c #9A5629",
"g. c #9E592B",
"h. c #985327",
"j. c #895635",
"k. c #965A36",
"l. c #A15B2C",
"z. c #A95F2F",
"x. c #A55E31",
"c. c #A76338",
"v. c #B56534",
"b. c #936639",
"n. c #865A4E",
"m. c #8B6459",
"M. c #976959",
"N. c #987A46",
"B. c #A86842",
"V. c #A66D52",
"C. c #BA7149",
"Z. c #937064",
"A. c #A67668",
"S. c #AF7D6F",
"D. c #C2784F",
"F. c #B59353",
"G. c #B78679",
"H. c #AF8175",
"J. c #CD8B70",
"K. c #D1AD63",
"L. c #D7B465",
"P. c #CBA962",
"I. c #E1BC68",
"U. c #C8A35C",
"Y. c #737F81",
"T. c #537C80",
"R. c #3A8F93",
"E. c #3D9FA1",
"W. c #2B9497",
"Q. c #5B8182",
"!. c #478B8F",
"~. c #628483",
"^. c #6A8B8A",
"/. c #758A8A",
"(. c #6A9899",
"). c #719D9D",
"_. c #769595",
"`. c #71928F",
"'. c #47A8AB",
"]. c #75A2A3",
"[. c #7AA4A4",
"{. c #7EAAAA",
"}. c #7DA7A8",
"|. c #7AB3B6",
" X c #58D4D7",
".X c #67E7EA",
"XX c #7BECED",
"oX c #75F2F4",
"OX c #89898A",
"+X c #8A8E91",
"@X c #899597",
"#X c #95989C",
"$X c #958D87",
"%X c #BE9387",
"&X c #83ADAD",
"*X c #89AAAB",
"=X c #84B2B2",
"-X c #8CB1B2",
";X c #8BBBBC",
":X c #92B4B4",
">X c #9ABBBA",
",X c #95BABA",
"<X c #93A9AA",
"1X c #A3A7A9",
"2X c #B4B8BA",
"3X c #ADB0B3",
"4X c #9B9FA3",
"5X c #C28D81",
"6X c #C89487",
"7X c #D69989",
"8X c #DAA396",
"9X c #E2AA9D",
"0X c #E6A698",
"qX c #E4A18F",
"wX c #F3B2A4",
"eX c #FEBCAE",
"rX c #F9B7A6",
"tX c #FFBEB0",
"yX c #EBB1A3",
"uX c #E1AA99",
"iX c #FFC4B7",
"pX c #90BFC1",
"aX c #9ACCCC",
"sX c #95C4C5",
"dX c #9CD9D9",
"fX c #8AC3C3",
"gX c #BEC3C5",
"hX c #A6D6D7",
"jX c #A9CECF",
"kX c #92ECEC",
"lX c #B3E2E4",
"zX c #C3CBCC",
"xX c #CBD4D6",
"cX c #D2D9DC",
"vX c #CFE6E9",
"bX c #E9F7F8",
"nX c #F4FFFF",
"mX c #E2EEEF",
/* pixels */
"                                                        8.X.X.| | X.#.#.0.1X                                                    ",
"                                                    q.2 1._.&X&X{.&X).Q.) 7 0.                                                  ",
"                                                #.| O w dXsX;X=X=X&X=XsXsXq 6 8.#X                                              ",
"                                      @./ ^ o.      O.5 {.{.}.&X=X{.{.;XpX5 o.7._ / @.q.                                        ",
"                                | w ( 6.    aXjXaXjX9.3 {.=X=X-X&X&X&X;X).2 }.aXaX;X).2.t y                                     ",
"                            w 5 2.  aXaXsX,X,X,X:X>X/.w =X,X&X{.}.}.}.;X~.e ].[.}.=XpXaX,X~.9 7                                 ",
"                          + O.  sXsX:X:X,X,X>X>X>X>X@XX.&X=X{.{.}.{.}.fX~.) [.[.].).).].|.sX-X:.O }                             ",
"                        +   sX,X-X*X-X:X:X,X>X>X>XjX<X_ ;X&X{.{.{.{.&XfX^.6.[.].].).).).).).|.aX`.5 6                           ",
"                      @   ;X-X&X-X-X-X:X:X:XpX>X:X@X9.| `.`.[.&X&X{.{.;X_.T.&X).).).).).).).).].,X^.u Q                         ",
"                    + ( =X=X&X&X&X-X-X<X:X>X@X:.K $.:.+.| 0 } T.).].{.;X[.(.].).).).).).).).).).].;X<.O                         ",
"                    w   &X}.&X&X&X-X-X:X-X9.M K /.`.5.1.O...| X.o.<.4._.pX).).).).).).).).).).).).].[.5 +                       ",
"                  i w [.-X*X}.&X*X&X:X:X^., ( o.( o.6.[ [ { R.!.{ [ 1.O.1.1.1.7.(.).).).).).).).).).).^ @                       ",
"                  O G _.}.-X-X&X-X-X&X&X5.q !.~ G Q.] R. X X X X X'.R.[ _ 4 3.~ 5.).).).).).).).).).).) .                       ",
"                  : r `.(.^.^.`.^.~.5.~.2._ ) 2 3.3.'.oXoXoX.X.X.X.X X{ [ Q _ O.1.6.~.~.5.~.^.~.^.(.].1.@ t                     ",
"                  O 5 _ o.o.O.O.;.;.;.;.;.<.O.q [ Q.fXkXoXoXoXoX.XoXXX(.[ Q Q 1.<.<.<.<.;.<.<.;.;.O.o.e @ . |                   ",
"                6 3 o.;.o.o.;.2.;.o.o.o.) ) _ 4 r Q._.dXkXXXXXXXoXkXaX6.1.3 ^ ) O.O.+.O.;.;.<.<.<.<.;.o.^ O @                   ",
"          q.8./ @ 2 q q q ^ / e t G r q q q w r r ^ ( O.;.1.3.3.6.2.( _ G 3 5 3 3 3 q 5 3 u 5 5 w e G ^ ( 2 . w                 ",
"  @.+ 5 e Q ^ ( ^ ( ) <.4.2.1.;.1.7.5.5.7.7.4.4.4.4.3.3.4.3.4.4.4.7.6.6.4.4.7.4.6.6.6.4.7.1.O.o.O.) ^ ^ G 5 3 t +.@.            ",
"  | O 5 r r q 5 5 5 u u - : 0 &.%.0 - M L N < < < < 1 1 O 0 K Z K y : : , , 7 9 9 0 0 5 q t Q } G G G G ^ o.) ( e r e ^ e + @.  ",
"        0.  8.9.    Q o S p.V.wXrXG.N L T *.&.I k D D g f 6XwXwXwXqXZ.,.w.w.,.>.>.>.=.$.A 7X8X8XV.H < : w ( ( t 7 Q t t X.2.    ",
"                    8.Y l.l.v.J.tX8XL gXvXxX1X1XzXzXzX4X&.0XtXtXiXrX6X3XnXbXmX2XxXmXbXcX&.G.tXrXC.c.B.j.w (.lX  |               ",
"                    ,.Y z.l.c.qXtX7XL xXnXbX:.| xXnXnXgX-.0XtXtXeXiXM.$XnXnXgX/ #.xXnXmX@.n.tXrXS.c.c.s.9 (.lX  ^               ",
"                     .# s n l.7XtXwXm.q.xXmXzXgXvXbXgX8.S.tXtXtXrX0X5X-.3XbXbXxXcXnXbX3XL J.iXiXD.h.j > : !.dX  e               ",
"                    Z &.% J g.J.tXeX7XT N &.,.*.-.=.8 F eXiXtXtXeX7X*.n.M ,.w.,.w.$Xw.K H.iXiXrXC.b & *.7 { dX  e               ",
"                     .Z z i.f.J.8Xm.D Y a.f.l.l.l.l.b h S.qXrXeXqXM.s v p.h.f.h.d.f.a.W *.H.wXrXC.i.& L 7 { dXaX                ",
"                    $.o o d h.c.B j l.z.l.l.l.l.l.l.f.n h D F F D x u.z.l.l.l.l.l.x.c.c.d.g *.0XD.d.& + r E.dXaX                ",
"                       .X d g.v = l.l.l.l.h.d.g.l.l.l.l.f.s.i.u.d.g.g.g.l.l.l.l.f.f.l.g.l.s.< V.v.U o 4 ' E.dXdX                ",
"                        0 j g.k s f.l.l.g.g.U H J u.i.s.s.i.l.c.h.g.g.f.h.s.u.J U d.l.l.l.g.d u.v.d., ! W.E.dXdX(               ",
"                        , b g.v $ i.l.l.l.l.i.b j g = V *.m.7XqXM.n.D k d d j b U l.l.l.g.i.> J l.l.U G ' E.dXaX^               ",
"                      Z & n g.J & v l.l.g.l.h.J J c - J.qXJ.J.J.J.J.7X6XA s J J d.l.l.l.g.H & J l.z.g.1 ' E.dX  e               ",
"                    - % = u.g.s.* > d.l.l.g.h.u.U j M 6XD.l.l.l.z.c.7XeXm.s J i.g.l.c.z.g.j % s.i.H d & ` E.dX  r               ",
"                  w.& v k h.g.g.g & J l.l.l.d.U J j ; B.z.l.x.B.c.l.c.V.T c J i.l.l.c.c.b.% d f.f.u.c * 4 E.dX  r               ",
"                    1 g J f.l.l.u.& k g.g.l.s.H J c = i.c.c.c.x.g.g.l.u.s d k i.g.h.i.s.W 1 I l.f.h.H > ! W.hX  (               ",
"                    :.% H h.l.l.g.z > s.l.g.g.J b H g j.c.x.g.g.l.l.l.s.n $ d i.J > C M.,.T &.T I k j & 4 (.vX  +.              ",
"                    @.* H i.h.i.f.H & u.l.g.g.s.H C B I x.g.s.g.l.l.g.s.u.> s j f %.H.9XwX8X9X8X8X%XZ.; X T.vX  |               ",
"                      # g H d d h.J * h.l.i.l.k.Y , l a.l.f.h.g.g.l.l.i.s.g o > =.%X6X7X8X8XyXiXiXiXyXN @ `.vX  Q               ",
"                      Z $ c = g v.s.> H U d.c.j.d & b g.l.f.d.l.g.g.g.s.i.d B %X9X8X9X8X9X9XyX8X8XiX6X0 _ |.lX2.X.              ",
"                      #.$ v b s k J % , j.c.k.c % l u.h.l.f.d.l.g.g.g.i.b % A.iXH.m.A.A.A.G.Z.V H.iX6X1 ! fXvX+.                ",
"                        8.8 s g j z , I c.s.k % j d.i.f.l.f.d.g.l.g.s.s.H ; H.H.< d u.s.p.b > % %XeX8XM ` {.lX|                 ",
"                            8.1 D I < i.J s & > s.g.a.h.l.g.f.g.g.g.i.f.d.g 1 1 v v.v.c.x.g.J & Z.iXA.9 ` ).jXe                 ",
"                              #.; & h n = * $ * g.z.d.s.g.g.g.g.g.d.d.l.g.g o H z.v.l.g.l.g.i.& *.qX| ` ] _.  r                 ",
"                              Z a h d = % c d X g g.g.d.l.l.g.f.g.g.g.g.l o I x.N.b.j.u.H J u.% n.n.3 ' ] [.  w                 ",
"                              D y.D # = % d s X > v d.f.s.u.u.u.s.g.g.H X l F.P.K.L.K.b.< c n & F h 3 ' ` :X  w                 ",
"                          w.m y.x N A F m p # X * H c d c b H c z H g.g X F.K.F.F.L.I.F.F.I = & = , ! ' [ pX  |                 ",
"                          A p t.t.z V T T s h g o g j d j a.l.l.j g i.* # F.U.L.L.L.I.K.P.I X X : ` ' ' O.                      ",
"                          A a a a p $ M B 8 E i.% > J H v h.g.h.g c d.> X < F.U.K.K.U.F.W o X X 3 ! ` ` _   (                   ",
"                          V r.r.p a $ B C M < I M > J u.s.d.i.h.H j u.> o # - f P I P z > p % @.9.8.;.O.X.                      ",
"                        @.p x e.m t.p 1 V V 1 C C 8 Y u.u.a.u.u.i.H H z % B 1 f l c m r.e.C w.                                  ",
"                        ; x e.y.y.y.t.= M C V V T B M V I n n J H H g > f R R E F f f F =.                                      ",
"                        Z p x e.y.y.y.x ; 8 B V R E I C A B z > > 1 f I E W T C 8 =.4X2X                                        ",
"                          T H.C.n.F R G.J.N o M R W W E B C T T B < E E W W C 0 #X                                              ",
"                          *.eXwXS.A.T A.%X%. .8 V W W T - 1 M Z Z % P E W E f w.                                                ",
"                          T rX9XA T T A %.4XgX#.B E E T &.OXOX$X#X8.< T W R 1 OX                                                ",
"                           .J.eXZ.B n.*.&.OX  w.< D T f #.        3XN I W E Z #X                                                ",
"                             .S.J.Z m.A.A 4X8.7 < A V 1 , #.        $.T E E L 1X                                                ",
"                                      $X    y Z 1 M B ; 0 7 +X    gXK f T D N +XgXxX                                            ",
"                                            } 6 7 0 0 0 i + Y.    q.y 8 N Z 0 Z #.2XxX                                          ",
"                                            #.+ 7 0 u 6 + O +X    #X} }  . .} y } #XgX                                          ",
"                                            | 7 y u y u 0 u 0.    zX .6 | +.2.:.Y.Y.9.q.1X                                      ",
"                                          #Xu | X.X.X.#.#.} | 2X  2X| :.Y.Y.Y.Y.Y._.Y.#.:.                                      ",
"                                          =.Q T.Y.^././.Y.2.Q 1X  4Xu Q <.9.9.9.9.9.6.| X.3X                                    ",
"                                          +XQ ..+.@...( Q Q } 1X2X=.u 6 w } / / } } Q 0 u #.                                    ",
"                                            OX8.@.X.X.X.X.8.OX#X4XY.$.} } } / / } } / } | 8.                                    ",
"                                            4X#X+X#X+X+X@X#X#X#X#X#XOXY.Y.Y.Y.Y.0.Y.Y.Y.+X#X#X                                  "
};
