/* XPM */
static char *back_resized[] = {
/* columns rows colors chars-per-pixel */
"64 64 239 2 ",
"   c None",
".  c #030302",
"X  c #070807",
"o  c #090906",
"O  c #050B0B",
"+  c #0B0D0C",
"@  c #0C0602",
"#  c #1E1108",
"$  c #060E10",
"%  c #0D1313",
"&  c #0C181A",
"*  c #121414",
"=  c #131B1B",
"-  c #1C1D1D",
";  c #191714",
":  c #140D07",
">  c #27160B",
",  c #321B0B",
"<  c #3A190A",
"1  c #2B1D13",
"2  c #241C18",
"3  c #28140C",
"4  c #3C210E",
"5  c #28241C",
"6  c #3B2314",
"7  c #372418",
"8  c #101F21",
"9  c #1B2323",
"0  c #142425",
"q  c #183335",
"w  c #132628",
"e  c #242424",
"r  c #222B2B",
"t  c #2C2C2C",
"y  c #292827",
"u  c #342B23",
"i  c #372C26",
"p  c #3A372B",
"a  c #263332",
"s  c #2A3535",
"d  c #2B3A3A",
"f  c #343434",
"g  c #323C3C",
"h  c #3D3B3B",
"j  c #3B3735",
"k  c #272F30",
"l  c #4C1B13",
"z  c #541B15",
"x  c #671D17",
"c  c #432511",
"v  c #4C2A13",
"b  c #48291A",
"n  c #552C17",
"m  c #593319",
"M  c #41240F",
"N  c #66391B",
"B  c #6C3D1C",
"V  c #623619",
"C  c #713F1E",
"Z  c #73231A",
"A  c #452C22",
"S  c #4C3323",
"D  c #48352B",
"F  c #553929",
"G  c #5A3D2C",
"H  c #553626",
"J  c #443E3D",
"K  c #433A34",
"L  c #573D35",
"P  c #592C22",
"I  c #673B25",
"U  c #742D26",
"Y  c #31403D",
"T  c #74411E",
"R  c #79431F",
"E  c #47403D",
"W  c #5C4435",
"Q  c #565135",
"!  c #59432D",
"~  c #66442D",
"^  c #7B4521",
"/  c #764524",
"(  c #614332",
")  c #694935",
"_  c #724D35",
"`  c #75483A",
"'  c #765136",
"]  c #795337",
"[  c #7B553A",
"{  c #7C563C",
"}  c #695D3C",
"|  c #323F41",
" . c #1E4448",
".. c #344342",
"X. c #3B4D4B",
"o. c #3A4444",
"O. c #3C5454",
"+. c #2C4E4F",
"@. c #2C6365",
"#. c #33686B",
"$. c #397577",
"%. c #3F5C60",
"&. c #444342",
"*. c #474A4A",
"=. c #425453",
"-. c #4A5C5B",
";. c #465A58",
":. c #5A5B5C",
">. c #565756",
",. c #4F504D",
"<. c #745443",
"1. c #67564F",
"2. c #4A625D",
"3. c #50625E",
"4. c #736851",
"5. c #4C6562",
"6. c #4E6966",
"7. c #546563",
"8. c #536B67",
"9. c #546D69",
"0. c #5B6766",
"q. c #56716D",
"w. c #59726F",
"e. c #5C7574",
"r. c #5C7A7A",
"t. c #45797D",
"y. c #646364",
"u. c #66686A",
"i. c #647C7B",
"p. c #657A78",
"a. c #767778",
"s. c #6D6F6F",
"d. c #5D5F61",
"f. c #8E2F2A",
"g. c #B0302D",
"h. c #8F241D",
"j. c #D53232",
"k. c #CB302E",
"l. c #834922",
"z. c #8B4E25",
"x. c #804721",
"c. c #8F5027",
"v. c #955429",
"b. c #98562A",
"n. c #80593E",
"m. c #A15A2C",
"M. c #A95E2E",
"N. c #AB4339",
"B. c #AA6535",
"V. c #835B45",
"C. c #B24743",
"Z. c #89614B",
"A. c #897749",
"S. c #8F675B",
"D. c #EC5555",
"F. c #E25553",
"G. c #EC5252",
"H. c #D0695F",
"J. c #D6615B",
"K. c #65807F",
"L. c #AA8D57",
"P. c #B68375",
"I. c #B09C5C",
"U. c #C19452",
"Y. c #C5AA67",
"T. c #CDB56A",
"R. c #CBB368",
"E. c #D2B96D",
"W. c #D4BD71",
"Q. c #D4BB77",
"!. c #C5B076",
"~. c #C2A85D",
"^. c #DAC278",
"/. c #7A7D80",
"(. c #3F8284",
"). c #428688",
"_. c #499697",
"`. c #579093",
"'. c #6B8584",
"]. c #6D8A8A",
"[. c #688685",
"{. c #75898A",
"}. c #759493",
"|. c #7A9898",
" X c #709190",
".X c #7AA09F",
"XX c #54A9A9",
"oX c #5CBABA",
"OX c #5AB5B5",
"+X c #4FA0A1",
"@X c #7CA4A4",
"#X c #7EAAAA",
"$X c #74A4A5",
"%X c #68BABB",
"&X c #799EA2",
"*X c #6BC1C1",
"=X c #79C6C7",
"-X c #839C9B",
";X c #8E9293",
":X c #85A3A3",
">X c #82ADAD",
",X c #8CABAB",
"<X c #88A6A6",
"1X c #92AAAB",
"2X c #8CBBBC",
"3X c #89B3B3",
"4X c #94B4B4",
"5X c #9BBBBB",
"6X c #96B9B9",
"7X c #8AAFB0",
"8X c #A6B7B7",
"9X c #C89286",
"0X c #EDA89A",
"qX c #FCB4A5",
"wX c #DCC380",
"eX c #A7BEC1",
"rX c #87C9C9",
"tX c #98C7C7",
"yX c #9CD3D4",
"uX c #94D2D2",
"iX c #ADCCCD",
"pX c #A8C7C7",
"aX c #B3CACA",
"sX c #A5D9D9",
"dX c #ACDBDD",
"fX c #A6D4D4",
"gX c #B5DADB",
"hX c #B0CFD1",
"jX c #B3DFE1",
"kX c #BBE3E4",
"lX c #B7E2E3",
"zX c #CBD7D8",
"xX c #C2E5E8",
"cX c #D6E8EA",
"vX c #EBF3F4",
"bX c #F2FAFB",
"nX c #FBFEFE",
"mX c #E4ECED",
"MX c #C3DFE0",
/* pixels */
"                                                          /.a.a./.;X                                                            ",
"                                                  s.| ..=.O.=.O.O.X.g ,.                                                        ",
"                                                y.=  XtXtX2X2X2X2XtX2Xd | ;X                                                    ",
"                                          u.&.t & 9 tX2X#X#X#X>X7X3XyXo.- d 9 r g y.                                            ",
"                                    >.r 9 d 6.&X@Xs #X3X#X#X>X3X>X>XuXo.i.sXtX&X5.a * - :.                                      ",
"                                t = s [.tXyXuXtX@Xd r.6X>X3X7X>X>X>XyX+.q.5XtXyXdXfX3X5.- % o.                                  ",
"                            y % O.$XtXtX#X}.].].]...=.yX7X>X#X#X#X>XtXX.'.5X4X6X5XtXfXsX2X;.$ * s.                              ",
"                          $ d |.tX3X].i.i.[.[.].}.7.=.2X>X#X#X#X#X>X2XX.|.5X5X8X5X5X6X5XtXfX}.0 $ o.|                           ",
"                      h % 6.tX>X[.q.r.i./.[.[.}.|.K.Y #X#X#X#X#X#X#X3X5.-X6X5XeX5X8X5X5X4X4X:Xs y.zX;Xr                         ",
"                    *.. | 3X|.i.w.t.r.i.r.[.}.}.}.[...#X#X#X#X#X#X#X2X[.&X5X5X5X5X5X6X4X4X&Xs | zXnX  y u.                      ",
"                    X % }.[.8.w././.r.p.[. X X[.{.].2.$X#X#X#X#X#X#X2X#X:X4X4X6X6X4X4X3X,X-.% {.nXnXzXt o.                      ",
"                  &.. 5..X9.8.8.9.r./.{.'././.[.].]. X2X#X#X#X#X#X#X>X>X<X7X1X1X1X4X1X1X{.8 s zXnXnXmXg g                       ",
"                  ; $ [.r.8.8.8.9.9.e.r.r.i.i.[.].]..X2X#X#X#X#X#X#X>X2X,X<X<X,X,X<X<X:XO.&  XbXnXnXvX>.9                       ",
"                  X 9 q.8.8.8.8.8.9.e.e.e.p.i.K.K.[..X2X#X#X#X#X#X#X>XrX4X:X:X:X:X<X:Xi.& | zXnXbXbXvXd.&                       ",
"                  o % 2.9.8.8.8.8.9.p./.i.r.p.i.K.K..X2X#X#X#X#X#X#X#X2X4X-X-X-X-X:X}.| & [.vXbXbXbXvXd.O t                     ",
"                  O + =.9.9.9.q.p.p.e.e.i.'.i.p.i.K..X2X#X#X#X#X#X#X#X3X7X}.}.}. X'.7.* k aXbXbXbXbXmX0.X . :.                  ",
"                >.O 9 r a Y *.=.X.X.X.X.X.2.7.8.2.=.p.[.q.6.6.6.6.5.2.O.O.g ..Y a 9 & $ 6.cXbXbXvXbXmX0.O . % f *.y.            ",
"                e ; w.2.-.2.=.Y a a a d s s s o.*.g a a s Y ....O.;.O.X.=.;.2.6.5.X.& 8 }.cXcXcXcXvXmX:.O . ..      d.f * t     ",
"        ,.t t g y + 2.K.p.e.q.9.w.w.w.w.w.w.w.w.e.K.p.e.q.q.q.w.q.8.9.9.5.7.7.5.5.s $ | eXxXxXkXxXxXjX*.$ s 7XdXdXgX    - .     ",
"    :.- u.      <XY Y *.X.2.2.2.3.3.6.2.2.6.3.3.5.3.9.e.q.6.2.6.2.5.3.5.5.5.5.5.;.= & %.gXkXxXkXkXkXiXk t :XfXiXpX8X1Xu.% .     ",
"    X -   cXxXgXgXpX<X].e.7.=.X.X.=.O.2.2.2.2.2.2.2.2.2.8.w.8.2.2.2.2.2.5.6.2.2...$ q &XlXlXlXlXkXkXiXo.k [.}.[.p.8.X.- . %     ",
"    - X o.s.;X8XaXaXgXMXgXdXiX5X6X7X-X|..X|. X].'.K.i.p.p.K.{.{.[.K.].}.|.<X:X|...$ +.2XlXlXlXlXkXxXiXr & ....a 9 % X * *.      ",
"    &.. e X.=.=.2.0.p.;X-X-X8X8XaXaXaXaXaXaXiXhXhXhXhXiXiXpXpXiXiXaXpXpXaXeX4X}.9 0 t.uXlXdXjXlXkXlX6X9 O . o @ . &.            ",
"        ,.5 * + % * 8 9 9 y s o.=.=.2.3.8.7.8.8.w.0.9.9.0.7.7.7.3.-.:.=.| k y 8 %  .`.fXdXgXlXjXdXjX$X8 2 n , > ,.              ",
"              :.3 v , # @ : @ . . . X X X @ X X X X X X o o o o @ @ : 5 > # # @ 8 #.$XdXdXdXjXdXdXdX[.% b N p                   ",
"                E V x.V M x.l.R T N R T B B V N N B T T T T / T R R B x.z.z.T ; q #.$XrX=X=X=XrXuXdXr.% m n y.                  ",
"                  :.A 1 , l.b.M.R N c.v.c.z.b.m.m.M.b.M.M.m.M.m.M.z.c B R R v &  .).%XOXXXXX+X_.).`.+.* 6 7                     ",
"                        5 , m N T m v m T z.m.m.m.b.M.b.m.m.b.m.c.R m c v v 1 8 @.@.$. .q w a s E p y % ; 1 y.                  ",
"                        u.: > , M R m B c.b.v.z.z.z.c.c.b.b.c.c.^ R T T T m ; 8  .0 2 > i 4.I.Y.E.E.Y.Q j W j                   ",
"                        1.> c > # 4 c , v V V B R R R R ^ l.T v T T T / T N ; $ * V ' A.~.Q.Q.W.E.E.I.5 - i = s.                ",
"                      K # M l.z.T m 4 : M V B R R R T 4 m T T v > 7 ! ~ T m % % B M.L.T.E.^.^.^.W.E.A.} L.Y.Q r                 ",
"                    :.> n m c.m.m.m.c.m 4 V B B T V 4 6 c 4 4 A W p m R R m + 7 m.U.R.T.T.^.Q.Q.Q.Q.E.T.^.^.A.=                 ",
"                    :., B C b.m.m.m.m.b.l.m v n v n C b.v.N L 9X0XS.b v N b O 7 B.~.R.R.^.E.~.~.R.^.^.E.R.^.4.=                 ",
"                      j < C b.m.m.m.m.m.m.m.b.b.b.b.l.~ G L K 9XqX0XP.<.7 % $ 5 c.L.~.T.E.^.R.R.T.^.^.Q.^.Y.Q t                 ",
"                        > T c.M.m.b.m.m.m.m.m.z.m , 7 <.L i u S.qXqXqX0XL O $ % m / A.R.R.^.T.^.R.^.T.^.!.4.* &.                ",
"                        7 B R x.N R m.b.m.m.z., # 7 <.<.6 f.g.C.H.H.P.D.I + 0 @.q 1 5 Q L.~.R.R.R.^.I.4.p - p                   ",
"                        J A ) m , z.m.m.m.v.b 1 G H ) _ 6 C.D.D.G.F.G.F.U $ +.OXXX$.+.q q p Q Q Q p 5 z z 3                     ",
"                          3 ~ ~ 6 B M.M.M.l.5 i g.P ~ ' b f.D.D.D.G.G.F.i 8 $.oXoXoXOXXXXX+X(.).(.w 3 g.g.1                     ",
"                          u 4 I ~ F n m ~ S # z g.x ~ { G v F.D.D.D.D.J.2 q _.oXoXoX*X*X*X*X=X=XXX8 v k.h.u                     ",
"                            y.L 6 m ' ' m # > Z g.H F ~ b 3 L u.C.G.D.g.;  .+XoXoX*XuXsXyXyXsXyX_.& x g.z                       ",
"                                y.1 n I < l l h.g.>.i b x n 7 ;.<.k.j.h.% +.+XoXoX=XsXsXsXfXsXuXt.& A W                         ",
"                                    y.K 6 h.z Z k.f.b ` <.) L ( N.j.j.h.& @.XXoXoX=XsXsXsXsXsXrX+.s                             ",
"                                      D f.N.l h.j.k.U ( <._ ( P h.g.k.U % @.XXoXoXrXsXsXsXsXdX%Xq h                             ",
"                                      D x b D U g.g.m ( ] ` ( F A P z 7 & +.XXoXoX*XuXuXfXyXyX`.8 :.                            ",
"                                        # M b ( ` ( S ~ ] ] ] _ L I G i + w _.OXoXoXoX*X*X*X*X$.8                               ",
"                                        1.U n 6 F ) <.{ ] ] ] ] [ V.] _ A * q @.#.$.(.(.).(.#.q o.                              ",
"                                          7 < 6 ( _ { Z.V.{ ] ] ] ] ] ] ' ~ F S u u u u p u 5 ; a.                              ",
"                                          u < 4 ! ) ] [ V.Z.V.] ] ] ] ] ] ] [ [ [ ] ] ] ' ' F K                                 ",
"                                            , 3 S G ) ' ] { V.Z.n.] ] ] ] ] ] ] ] ] ] ] _ ( 6 :.                                ",
"                                              K 1 F G ( _ ] [ { Z.Z.{ ] ] ] ] ] ] ] ] ~ ( b i                                   ",
"                                              s.1 7 S F F W W I ! W <.{ ' _ ! ' ] ] ' _ b E                                     ",
"                                                W S.A 2 i E *.E J y 2 W ( H 7 ( ] ] ' S K                                       ",
"                                                1.H.9Xt j *.,.*.E f ; 7 K A ; A ' ' ) ,                                         ",
"                                                  :.S.i h E J J E J e >.S.  u.7 W W G p                                         ",
"                                                    a.h y f t t t y |         K H G D &.                                        ",
"                                                      0.e 2 e e e y *.        ,.H G H *.                                        ",
"                                                      e J J J J J &.y s.      E F G S j                                         ",
"                                                      2 J J J J J ,.| u.    J J J K K j &.                                      ",
"                                                      y j J J &.>.,.2 ,.    t h &.&.E t g                                       ",
"                                                        f f *.*.j y &.:.h =.y j J E E t f *.|                                   ",
"                                                                        t *.k J J J J f y t f d.                                ",
"                                                                        r f f j h K J j y - 9                                   ",
"                                                                      {.k e y t t t t t y - -                                   ",
"                                                                        /.u.u.y.d.:.>.:.:.y.                                    "
};
