/* XPM */
static char *charrightt_removebg_preview_resized[] = {
/* columns rows colors chars-per-pixel */
"64 64 243 2 ",
"   c None",
".  c #1C120A",
"X  c #171A18",
"o  c #1A0E05",
"O  c #28150A",
"+  c #321C0C",
"@  c #381A0C",
"#  c #271B14",
"$  c #3A1D14",
"%  c #270E08",
"&  c #3C210E",
"*  c #37200E",
"=  c #28211C",
"-  c #3C2413",
";  c #382519",
":  c #1B2322",
">  c #1E2A2A",
",  c #1F3738",
"<  c #242525",
"1  c #222C2C",
"2  c #2B2B2B",
"3  c #282625",
"4  c #352A24",
"5  c #392D26",
"6  c #26302E",
"7  c #3D322C",
"8  c #37302B",
"9  c #2B3433",
"0  c #283838",
"q  c #343433",
"w  c #3C3C3B",
"e  c #373938",
"r  c #282E30",
"t  c #192020",
"y  c #581C14",
"u  c #4A1B0E",
"i  c #671C16",
"p  c #771E1A",
"a  c #44250F",
"s  c #432612",
"d  c #4C2A13",
"f  c #48291B",
"g  c #532D14",
"h  c #582A16",
"j  c #5A3216",
"k  c #583219",
"l  c #512817",
"z  c #792319",
"x  c #62361A",
"c  c #66391B",
"v  c #6B3C1C",
"b  c #603416",
"n  c #713E1D",
"m  c #662617",
"M  c #462D21",
"N  c #473328",
"B  c #5B3D2B",
"V  c #543728",
"C  c #433D3C",
"Z  c #473934",
"A  c #573E34",
"S  c #522B26",
"D  c #683D27",
"F  c #68342C",
"G  c #33413F",
"H  c #74411E",
"J  c #7A431E",
"K  c #49423E",
"L  c #5B4337",
"P  c #5D412C",
"I  c #66422B",
"U  c #7C4521",
"Y  c #784625",
"T  c #634432",
"R  c #6A4838",
"E  c #744D38",
"W  c #785337",
"Q  c #7F6639",
"!  c #124E4E",
"~  c #2B4445",
"^  c #334443",
"/  c #344C4A",
"(  c #3A4C4B",
")  c #394545",
"_  c #3B5351",
"`  c #3B5A58",
"'  c #365151",
"]  c #3B686B",
"[  c #2C6E6F",
"{  c #1B6D6D",
"}  c #494846",
"|  c #574A46",
" . c #57524F",
".. c #425553",
"X. c #445C5A",
"o. c #4A5857",
"O. c #555959",
"+. c #744D43",
"@. c #66544C",
"#. c #7C5547",
"$. c #655B57",
"%. c #6D4D46",
"&. c #44625C",
"*. c #49615E",
"=. c #66605D",
"-. c #4C6562",
";. c #486967",
":. c #526C6B",
">. c #576765",
",. c #487477",
"<. c #5A7877",
"1. c #4F7070",
"2. c #676767",
"3. c #736864",
"4. c #687878",
"5. c #777677",
"6. c #72716F",
"7. c #515F60",
"8. c #86241D",
"9. c #94281E",
"0. c #922C27",
"q. c #A82A26",
"w. c #B82D29",
"e. c #AE332D",
"r. c #831F1E",
"t. c #C52E2D",
"y. c #C63635",
"u. c #D43131",
"i. c #D03B38",
"p. c #CD312F",
"a. c #85491F",
"s. c #844A23",
"d. c #8C4E25",
"f. c #864F2A",
"g. c #8E5027",
"h. c #935227",
"j. c #955329",
"k. c #9A572A",
"l. c #9E592B",
"z. c #895636",
"x. c #995B34",
"c. c #814E31",
"v. c #A15B2C",
"b. c #A95F2D",
"n. c #A35E32",
"m. c #B54039",
"M. c #9C6239",
"N. c #A4633B",
"B. c #A76237",
"V. c #B86834",
"C. c #AC612F",
"Z. c #C16D36",
"A. c #855A49",
"S. c #855D52",
"D. c #8C614A",
"F. c #95675A",
"G. c #8D6351",
"H. c #A86842",
"J. c #AB715B",
"K. c #837D7A",
"L. c #947067",
"P. c #A9776A",
"I. c #B27D6D",
"U. c #C3774E",
"Y. c #5E817F",
"T. c #64817D",
"R. c #B38B52",
"E. c #B1867A",
"W. c #C68B7C",
"Q. c #D8917C",
"!. c #D7A765",
"~. c #387981",
"^. c #4D7D84",
"/. c #7B7E81",
"(. c #817F80",
"). c #129394",
"_. c #308688",
"`. c #588385",
"'. c #508F91",
"]. c #688887",
"[. c #69908F",
"{. c #6D9696",
"}. c #719D9D",
"|. c #799A99",
" X c #788B89",
".X c #7CA09F",
"XX c #5CA4A5",
"oX c #75A2A2",
"OX c #7BA5A4",
"+X c #7EAAAA",
"@X c #75ABAB",
"#X c #77B8B8",
"$X c #6BADAE",
"%X c #53D2D3",
"&X c #6AE7EA",
"*X c #878788",
"=X c #97989A",
"-X c #909091",
";X c #B2938D",
":X c #9D9EA1",
">X c #84ADAD",
",X c #86A8A7",
"<X c #9EA1A3",
"1X c #8AB2B2",
"2X c #87B9B8",
"3X c #95BAB9",
"4X c #89B0B0",
"5X c #A6A7A8",
"6X c #ACAEB1",
"7X c #B4B7BA",
"8X c #ADB1B1",
"9X c #CB9588",
"0X c #D59988",
"qX c #C48E81",
"wX c #EA9B87",
"eX c #D9A296",
"rX c #E7A99B",
"tX c #FCAB99",
"yX c #F4A68F",
"uX c #FDB4A4",
"iX c #FEBBAD",
"pX c #F4B6A8",
"aX c #FFBEB0",
"sX c #F0BDB1",
"dX c #E9ACA0",
"fX c #D1ABA1",
"gX c #8CC0BF",
"hX c #FFC3B5",
"jX c #BBBDC0",
"kX c #8CBFC0",
"lX c #8AC5C4",
"zX c #9BC3C3",
"xX c #95C7C7",
"cX c #9CD3D3",
"vX c #A5D9D9",
"bX c #A9D8D9",
"nX c #AFEAEA",
"mX c #92F1F2",
"MX c #CBCFD2",
"NX c #D9E6E6",
"BX c #F3FFFF",
"VX c #EFF7F7",
"CX c #DDDFE3",
/* pixels */
"                                                                                                                                ",
"                                                                                                                                ",
"                                      >.7.7.-.>.>.>.5.5. X                                                                      ",
"                                } _ Y.{.@X#X2X#X@X@X'.1./ 1 1 G  .                                                              ",
"                            e / Y.[.Y.Y.T.>.;.Y.[.@X#XlXlX#X].].`.( q                                                           ",
"                          : ( -.' G _ ' ..-.&.` ..X.;.[.#XlXlX1XgXcXoX0 )                                                       ",
"                          ^ 0 _ [.OX+XOXOX+X4X4XOXoX[.<.<.oXgXlXlXxXnXcX:.2                                                     ",
"                          1 1.OX>X+X+X+X+X+X+X4X1X>X+X>XoX{.}.gXlXgXxXnXnX^.q                                                   ",
"                        1 ^.,XoX+X+X+X+X+X+X+X+X4X1X>X+X+X+X|..XgXxXgXxXnXnX4.9                                                 ",
"                          oX}.oX+X+X+X+X+X+X+X+X+X+X1X4X+X+X+X{.|.1XlXgXzX4X:.: e >.                                            ",
"                        oX}.}.OX+X+X+X+X+X+X+X+X+X+X+X4X1XOX>.>.>.>. X].' ! ( ' ' ` ( O.                                        ",
"                        }.}.}.oX+X+X+X+X+X+X+X+X+X+X+XOX+XT.>..X+X<.q { ).,.&.] ^.,.] ` O.                                      ",
"                      oX}.}.}.oX+X+X+X+X+X+X+X+X+X+X+X+XOX*. X}.Y.0 ! ).).Y._.%X%X%X'.~.~ 7.                                    ",
"                      }.}.}.}.}.+X+X+X+X+X+X+X+X+X+X+X+X>XY.o._ ;.&.[ ).).~.XX%X%X%XlX^.~.r ^.' r                               ",
"                  9   }.}.}.}.}.oX+X+X+X+X+X+X+X+X+X+X1X4XOX-./ ] , ` _.).[ _.&X&X&XmX/.^.w zX/.t                               ",
"                  0   }.}.}.}.}.}.+X+X+X+X+X+X+X+X+X1X4X+X+X|.( ~ G G { _._.,.XX&XmXkX^.1.)  X:.X                               ",
"                  1   }.}.}.}.}.}.}.+X+X+X+X+X+X>X1X>X.X[.<.:.&.;.X.> ~ ! { _.1.[.[.-.<.^ _ *.9 <                               ",
"                  2 1.}.}.}.}.}.}.}.OX+X+X+X+X>X4XoX[.Y.1.*.;.&.&.' : > ~ ! ! ] -.:.:./ e ) X q                                 ",
"                  < ^ }.}.}.}.}.}.}.}.+X+XOX>X|.T.<.;.*.&.&.&.` / 0 , ] ' 0 ^ 6 G ) ^ 9 : : 2.                                  ",
"                9 X t `.}.}.}.}.}.{.{.[.[.].<.;.&.&.&.&.&._ / G ..X./ ,.|.OX].-...) 9 # ; O.MX                                  ",
"              =.X 0 9 _ <.^.<.<.Y.:.;.:.:.*.&.&.&.` _ / / ` :..XzXzX|.|.].7./ < X # T x.n.D <X                                  ",
"              # . : / _ X.-.;.*.&.&.:.:.&.` _ / / ( ..:..X3XzXzX,X].:.( r X 3 4 $ c s.f.z.D 5X                                  ",
"            4 = 3 t > ^ / _ ` ` &.*.../ / ' *.<. X,XzXzX3X|.T.>./ 6 : 3 . Z 0XP.| -X-XK.N *XMX                                  ",
"            X ..,X|.G 1 0 ^ / X.:.:.T.[.,X3XzX3X1X,X].:.X.G > # q >.5XMXK.+.pX#.5XBXBXVX*XK.CX                                  ",
"          6.e zXbXbX3X|.|.,X4X3XzXzXzX3X,X|.Y.:.X.^ 6 t = 7 $.8XNXVXNXMX5XA dX%.5XBXBXNX6X3.CX                                  ",
"           X> ].{.,X,X,X,X,X|. XT.T.>.o./ G > t = 8 | L.9XrXuXVXBXVX=X: K R dX+.=.5X6XO.Z | MX                                  ",
"            e 0 ....o.o.....) G 6 : X X . # | F.qXdXiXiXiXuXtXsXCXVXNX*XZ P.9X;X;XL.Z $.%.%.=.                                  ",
"            r : 1 > > < X X 3 3 4 ; k J g.S Q.tXiXiXiXiXiXhXuXtXE.E.4.@.F.pXaXaXhXeX$ S #.#.A jX                                ",
"          6.> OX1X>X4X5X) A P.A.D.N n j.C.l P.tXuXiXhXhXuXhX0XF.E F l x R D.I.9XW.R m h.j.h.Y 3.                                ",
"          r 1.bXbXbXbXcXq A.F.9X9X%.G.s.C.v I 0XuXiXuXhXuXP.P s.v.b.b.v.k.k.s.n s.d.l.v.v.v.N.g. .                              ",
"        5.> 1XbXbXvXvX@X( +.P.dXdXL.E.x.C.C.C.U.tXhXuXhXE.k l.b.v.v.v.v.v.v.n.j.l.v.v.v.l.N.N.n.k                               ",
"        e 1.vXvXbXvX@XXX`.5 F.9XiXeXS.c.n.l.C.Z.Q.yXyXQ.V a.b.l.v.k.k.v.v.v.k.d.a.s.J Y z.x.v.v.x 6.                            ",
"        0 >XvXvXvXxX'.XX#X;.% A +.f $ x.H.n.v.C.Z.V.V.v.s j.v.l.k.s.n n n D Y A.G.T f E f.l.v.k.a 4 6.                          ",
"      4./ xXvXvXvX$X'.$X#X^.3 | % l s.j.n.H.B.v.n.v.v.j.& v v.v.v.d.n c @ R qXwXQ.P.P Y h.l.l.g.- E +.E |                       ",
"      e _ cXvXvXcX^.'.#X$X' } 6X5 v H H l.n.H.B.v.v.v.v.x & k.v.v.k.s.n s %.J.B.B.c.g s.k.l.v.H V 0XyXyXJ.E @.                  ",
"      X ,.lXcXvX#X^.XX#XXX, 3.zX| O - x k.k.l.N.N.v.l.v.d.+ v v.v.v.d.a.g * f.N.B.H c U k.v.v.g S.uXQ.wXyXyXA.6.                ",
"      t 0 `.$X#XXX^.XX'.] t C | f u % % j v h.v.B.H.n.v.l.c * j.v.v.j.J c s M.n.l.v & U l.v.j.- F.0XrXuXW.W P $.                ",
"        o.r ~ ;.;.` ( 8 y i r.q.t.t.8.% g U g.s.k.n.H.n.v.h.* x v.v.j.J z.V Y l.v.g.& J v.v.s.O %.rXhXW.V h a 5 5.              ",
"            5.q ; p q.w.p.u.u.u.u.u.t.y O $ @ d d.k.n.H.N.j.v + d.l.l.z.Y v c k.v.j.@ v k.l.d.O E.hX;XV J h.h.a.j ; } (.        ",
"               .r.w.u.u.u.u.u.u.u.u.u.t.z i i O j J d.j.g.D h.s g l.B.x.H a s g.v.k.s j j.s.h.+ | S.f H v.v.l.k.k.j.J k N  .    ",
"            =Xl i q.p.y.z 8.r.r.r.p p i p w.t.y . @ d k k $ J H * g.l.j.d.& g v.l.l.c s h.d.c + % % & J d.h.l.v.v.k.l.b.M.L X E.",
"            A 9.p p i.0.} N M @ u i p q.w.u.w.i + 5 O $ S O & H & s.x.N.g.a g l.v.l.j.d b k.g # *XT.C * a H a.h.k.v.b.R.!.R.= [.",
"          | u i y e.e.@.8X| R l 8.t.u.u.u.p.9.u S T V y.y.z o + O & H B.x.; v v.l.k.k.s.- c H . E.       .* & b a.d.l.!.!.W q   ",
"        6.y 8.q.q.i.F 6.6X4 V L m q.t.u.u.w.y O A | 0.u.u.8.; ; % . J k.H N z.n.v.l.j.l.s.a v + q           2.8 + g Y R.Q 4 -X  ",
"        Z u z w.w.e.F 6.*X; V P +.D c 8.9.m @ j T M w.u.w.f P f O O s.s.+ d N.N.l.v.j.h.v.v a g g *X            *XK * = 3 -X    ",
"    5X3.E.A.D 8.q.0.D 5X6.f A P T R R R I + k z.U h w.t.i ; V $ O + U d o g k.B.H.l.v.d.j.j.d U g.$.                  *X        ",
"  5X| fXhXiXdXqXP.+.3.  K.; B T W R R L M M B Y c h w.8.* g s - V ; v * = j l.v.M.M.B.j.d.k.j.k.C.L     @.I I P 3.              ",
"  $.P.tXhXhXhXaXpXI.=.  5X5 V P E W W W R Z 5 * V f u + c s.H s L ; & K 5.; U v.v.j.M.N.h.d.v.k.l.; =.K H J a.j.H K             ",
"  N I.wXtXuXuXuXI.L.N 2.=XO.; B P R W D.F.P P P W #.5 * f j d =.5X5X| =XMX2.a g.l.g.j.N.N.j.h.l.k.j H g f = j l.d.;             ",
"  5.A z.Q.wXyXtXA.; < # 9 6.8 f M P D.W D.N I W W W I V M - C jX          7XK d d.g.j.l.N.H.x.k.l.g.k.V.l.k g B.x.;             ",
"      @.B A P.Q.B < 3 2 q q 2 X 8 N E W D.V V W W W W W B N =X              7X} & v g.l.j.l.H.N.l.l.l.C.C.H Y N.Y +             ",
"          *X| V # r 2 C C Z q } K X M P W N M I R I V ; 7 5X                    } O j g.k.j.k.n.v.l.l.l.k.j.x.j.d K             ",
"              /.3 2 e K e q K  .5 V N V R 5 4 N ; O ; B L 7X                      7 g U l.l.k.k.k.l.k.j.j.j.d.c #               ",
"              2.2 2 C C 8 2 C C ; T I W E @.6X7X=X4 P Q T =X                      <X5 j U g.j.j.j.d.d.U H j s ;                 ",
"            -X2 3 8 C K w *X5X/./.*X$.#.@.=X    8X7 I T $.                          =XZ a j c c j g a - 7  .                    ",
"            } r q r e w ) =X                    5.M E P 5X                              2.K N Z K  .6.                          ",
"            3 q 2.>.o.o.( *X                6X} q 5 N w jX                                                                      ",
"          *X2 } <././.:.7.                  :Xe } } }  .jX  /.5.5.4.-XMX                                                        ",
"            >.C } 7.....:X                     .q C q 2 o. .2 ..>.<.} =X                                                        ",
"                    5X6X                      ) q C C q e w w ) >.4.-.4.                                                        ",
"                                            :X2 q C C C C C e r >.4.7.e 5X                                                      ",
"                                          jX6.< 3 2 2 4 2 2 3 2 G e q < 5.                                                      ",
"                                          :X2.) q 3 2 2 r } 2 3 2 r e o.-X<X                                                    ",
"                                          :X-X/././.5.5./.-X/././.*X:X<X6X6X                                                    "
};
