/* XPM */
static char *charleft_removebg_preview_resized[] = {
/* columns rows colors chars-per-pixel */
"64 64 243 2 ",
"   c None",
".  c #1C120A",
"X  c #171A18",
"o  c #1A0E05",
"O  c #28150A",
"+  c #321C0C",
"@  c #381A0C",
"#  c #271B14",
"$  c #3A1D14",
"%  c #270E08",
"&  c #3C210E",
"*  c #37200E",
"=  c #28211C",
"-  c #3C2413",
";  c #382519",
":  c #1B2323",
">  c #1E2A2A",
",  c #1F3738",
"<  c #242525",
"1  c #232C2C",
"2  c #2B2B2B",
"3  c #282625",
"4  c #352A24",
"5  c #392D26",
"6  c #26302E",
"7  c #3D322C",
"8  c #37302B",
"9  c #2B3433",
"0  c #283838",
"q  c #343433",
"w  c #333C3C",
"e  c #3C3C3B",
"r  c #3A3635",
"t  c #282E30",
"y  c #192020",
"u  c #581C14",
"i  c #4A1B0E",
"p  c #671C16",
"a  c #771E1A",
"s  c #44250F",
"d  c #432612",
"f  c #4C2A13",
"g  c #48291B",
"h  c #532D14",
"j  c #582A16",
"k  c #5A3216",
"l  c #583219",
"z  c #512817",
"x  c #792319",
"c  c #62361A",
"v  c #66391B",
"b  c #6B3C1C",
"n  c #603416",
"m  c #713E1D",
"M  c #662617",
"N  c #462D21",
"B  c #473328",
"V  c #5B3D2B",
"C  c #543728",
"Z  c #433D3C",
"A  c #473934",
"S  c #573E34",
"D  c #522B26",
"F  c #683D27",
"G  c #68342C",
"H  c #33413F",
"J  c #74411E",
"K  c #7A431E",
"L  c #49423E",
"P  c #5B4337",
"I  c #5D412C",
"U  c #66422B",
"Y  c #7C4521",
"T  c #784625",
"R  c #634432",
"E  c #6A4838",
"W  c #744D38",
"Q  c #785337",
"!  c #7F6639",
"~  c #124E4E",
"^  c #2B4445",
"/  c #334443",
"(  c #344C4A",
")  c #3A4C4B",
"_  c #394545",
"`  c #3B5351",
"'  c #3B5A58",
"]  c #365151",
"[  c #3B686B",
"{  c #2C6E6F",
"}  c #1B6D6D",
"|  c #494846",
" . c #574A46",
".. c #57524F",
"X. c #425553",
"o. c #445C5A",
"O. c #4A5857",
"+. c #555959",
"@. c #744D43",
"#. c #66544C",
"$. c #7C5547",
"%. c #655B57",
"&. c #6D4D46",
"*. c #44625C",
"=. c #49615E",
"-. c #66605E",
";. c #4C6562",
":. c #496967",
">. c #526C6B",
",. c #576765",
"<. c #487477",
"1. c #5C7D7C",
"2. c #597674",
"3. c #4F7070",
"4. c #676768",
"5. c #736864",
"6. c #687878",
"7. c #747473",
"8. c #79797A",
"9. c #72716F",
"0. c #515F60",
"q. c #86241D",
"w. c #94281E",
"e. c #922C27",
"r. c #A82A26",
"t. c #B82D29",
"y. c #AE332D",
"u. c #831F1E",
"i. c #C52E2D",
"p. c #C63635",
"a. c #D43131",
"s. c #D03B38",
"d. c #CD312F",
"f. c #85491F",
"g. c #844A23",
"h. c #8C4E25",
"j. c #864F2A",
"k. c #8F5026",
"l. c #8D512B",
"z. c #935227",
"x. c #955329",
"c. c #9A572A",
"v. c #9E592B",
"b. c #895636",
"n. c #995B34",
"m. c #814E31",
"M. c #A15B2C",
"N. c #A95F2D",
"B. c #A35E32",
"V. c #B54039",
"C. c #9C6239",
"Z. c #A46036",
"A. c #A4633B",
"S. c #A96439",
"D. c #B86834",
"F. c #AC612F",
"G. c #C16D36",
"H. c #855A49",
"J. c #855D52",
"K. c #8C614A",
"L. c #95675A",
"P. c #8D6351",
"I. c #A86842",
"U. c #AB715B",
"Y. c #8E756E",
"T. c #A9776A",
"R. c #B27D6D",
"E. c #C3774E",
"W. c #5E817F",
"Q. c #64817D",
"!. c #B38B52",
"~. c #B1867A",
"^. c #C68B7C",
"/. c #D8917C",
"(. c #D7A765",
"). c #387981",
"_. c #4D7D84",
"`. c #7B7E81",
"'. c #807F80",
"]. c #129394",
"[. c #308688",
"{. c #598385",
"}. c #508F91",
"|. c #688987",
" X c #7C8585",
".X c #69908F",
"XX c #6D9696",
"oX c #719D9D",
"OX c #799A99",
"+X c #73938F",
"@X c #7CA09F",
"#X c #5CA4A5",
"$X c #75A2A2",
"%X c #7BA5A4",
"&X c #7EAAAA",
"*X c #75ABAB",
"=X c #77B8B8",
"-X c #6BADAE",
";X c #53D2D3",
":X c #6AE7EA",
">X c #878788",
",X c #929493",
"<X c #B79088",
"1X c #84ADAD",
"2X c #86A8A7",
"3X c #8AB2B2",
"4X c #87B9B8",
"5X c #95BAB9",
"6X c #8FABAC",
"7X c #A7A7A7",
"8X c #ABAFB0",
"9X c #9E9FA0",
"0X c #CB9588",
"qX c #D59988",
"wX c #C48E81",
"eX c #EA9B87",
"rX c #D9A296",
"tX c #E7A99B",
"yX c #FCAB99",
"uX c #F4A68F",
"iX c #FDB4A4",
"pX c #FEBBAD",
"aX c #F3B5A8",
"sX c #FFBEB0",
"dX c #F0BDB1",
"fX c #E9ACA0",
"gX c #D1ABA1",
"hX c #8CC0BF",
"jX c #FFC2B4",
"kX c #8CBFC0",
"lX c #8DC3C2",
"zX c #86C9C9",
"xX c #9BC3C3",
"cX c #95C7C7",
"vX c #9CD3D3",
"bX c #A5D9D9",
"nX c #A9D8D9",
"mX c #AFEAEA",
"MX c #92F1F2",
"NX c #CCD2D3",
"BX c #D9E6E6",
"VX c #F3FFFF",
"CX c #EFF7F7",
/* pixels */
"                                                                                                                                ",
"                                                                                                                                ",
"                                                                      `.7.8.4.,.;.;.0.0.4.>X                                    ",
"                                                              ..H 1 6 ( 3.}.oX=X=X4X=X*XXX1.` X.8.                              ",
"                                                        7.0 ) {.{..X*XzXzX=X*XXX2.:.>.W.W.{..XW.] q  X                          ",
"                                                      Z H $XvXkX4XlXlX=X.X:.o.' ` *.,.X.` ] H ( =.` : 4.                        ",
"                                                    t >.vXmXcXkXlX4X$X2.1..X$X%X3X3X&X%X%X&X&X|.` 9 / :                         ",
"                                                  w _.mXmXcXlXlX4X$X+X$X&X&X1X3X3X1X&X&X&X&X&X1X%X3.1 9 |                       ",
"                                                9 Q.mXmXcXhXlXhX2XOX&X&X&X1X3X1X&X&X&X&X&X&X&X&X%X%X_.1 q                       ",
"                                            0.q y >.4XcXlXlX4XOXXX&X&X&X3X3X&X&X&X&X&X&X&X&X&X&X$XoX%X{.6                       ",
"                                        +.] ' ] X.| , ' |.+X,.,.,.,.$X3X3X&X&X&X&X&X&X&X&X&X&X&X%XoXoX$X3.w                     ",
"                                      +.' [ _._.<.o.<.].} q 2.&X%X,.2.1X&X&X&X&X&X&X&X&X&X&X&X&X$XoXoXoXXX0 9.                  ",
"                                `. X0.^ _.}.;X;X;X[.<.].].} 0 1.@X+X0.&X&X&X&X&X&X&X&X&X&X&X&X&XoXoXoXoXoX;.e                   ",
"                              2 ( `.1 [ _.zX;X;X;X[.<.].].{ [ [ ` X.2.1X&X&X&X&X&X&X&X&X&X&X&X&XoXoXoXoXoX_.1                   ",
"                              X |.xXw _..XMX:X:X:X[.[.[.[.' 0 [ ( ;.%X3X3X1X&X&X&X&X&X&X&X&X&X$XoXoXoXoXoX.X9                   ",
"                            ,.X ,.+X_ 3._.kXMX:X#X[ [.[.} H 0 / ) XX2X&X1X3X&X&X&X&X&X&X&X&X&XoXoXoXoXoXoX.X0                   ",
"                              < 9 =.` H 2.;.+X.X2.[.} ~ ^ , *.;.*.>.W.+X%X1X3X1X&X&X&X&X&X&X$XoXoXoXoXoX$X{.1                   ",
"                                q X / w ( >.>.;.[ ~ ~ , 1 : ` *.*.;.*.>.W..X$X3X1X&X&X&X&X%XoXoXoXoXoXoXoX:.2                   ",
"                                  4.1 : 9 / _ H 6 ^ 0 ( [ , , ( *.*.*.*.*.:.2.Q.OX2X&X&X&XoXoXoXoXoXoXoXXX^ <                   ",
"                                    %.= # t _ X.=.|.2XOX3.( ' X.H H ` ' *.*.*.*.=.2.|..X.XXXXXoXoXoXoXoX{.: X q                 ",
"                                    F B.K.F # X 1 _ ;.|.OXOXxXxX%X>.X.( ( ` o.*.*.*.*.2.>.:.3.W.1.2.W.W.` 9 0 X -.              ",
"                                    U b.h.g.c $ 4 3 X 6 | 2.|.2XxXcX5X@X>.X.( H ( ` ' *.>.>.*.*.*.:.=.' ` ( : . # 8.            ",
"                                    >XB Y.,X,X .R.0XS X < y 1 _ ,.Q.@X5XxXxX6X+X2.*.` ( / o.=.' ' ' ` ( / > y < = 4             ",
"                                    7.>XVXVXVX9X$.aX@.8.NX9X0.9 : : H o.2.Q.@X5X5XxX3X2X+XQ.2.>.' / / 0 1 H OX2XX.X >X          ",
"                                    5.7XBXCXVX7XE fXG 7XNXBXCXBX8X%.7 = y 1 / *.2.Q.+X2X5X5XxXxX5X3X6X@XOX5XnXnX5X/ 9.          ",
"                                     .A +.8X7X%.$.fX&.Z 1 ,XVXVXCXiXuX^.Y.E 5 : y 3 w ) *.,.6.Q..XOX2X@X2X2X2XOX6.1  X          ",
"                                  5.&.&.-.A Y.<X<X0XT.B ,XBXCXBXjXyXiXjXpXpXtX0XL. .# X X y : 6 w ) ) X.X.O.o.` 0 q             ",
"                                  A $.H.D ; rXsXjXsXfXL.&.7.Y.~.uXiXjXjXpXpXpXiXyX0Xg z.Y l ; 4 4 3 X y 1 < 1 t : 9             ",
"                                5.T h.z.z.n E ^.0X'.P.W c j F W L.qXiXjXsXpXpXiXyXT.f F.x.m D J.$.T.S Z 5X6X1X3X%X> 9.          ",
"                               .l.A.B.B.M.M.h.g.F y.c.c.M.N.N.N.k.l ~.aXpXsXpXpXqXU J N.e.L.&.0X0XL.H.q cXnXnXnXbX:.t           ",
"                              l B.S.B.c.M.M.M.M.c.M.M.M.M.M.M.M.M.v.l ~.iXjXpXyXE.F.F.N.b.<XL.fXfXT.E ] &XbXbXnXnX4X> 8.        ",
"                            9.c M.M.B.b.m g.g.g.h.c.M.M.M.c.c.c.v.N.h.I /.uXuX/.G.N.M.Z.m.J.rXpX0XL.B _.#X&XbXbXnXnX>.w         ",
"                          7.; d c.M.v.j.E g P P.K.U b J J J g.v.v.M.x.d N.D.D.G.F.M.M.I.n.$ g @.S % :.=X#X}.cXnXbXbX2X0         ",
"                       .@.W @.- k.M.M.z.K U T./.eXwXE * n J k.M.v.M.b & x.v.M.M.M.B.I.Z.c.g.h %  .< _.=X-X}.*XnXbXbXcX/ 9.      ",
"                  #.W U.eXuXqXV J v.M.c.g.k m.S.A.U.&.d K g.c.M.M.x.& l v.M.v.B.A.I.Z.c.m m v 5 8X_ ] -X=X}._.vXbXbXvX] w       ",
"                7.H.uXyXeX/.aXJ.h v.M.c.K v J A.S.T + h Y k.M.v.M.J + k.M.M.M.A.S.v.c.c.c d O  .NX3., #X=X#X<.=XbXvXzX<.:       ",
"                %.I $.^.jXtXqXL.& z.M.v.K & J v.S.C.; J K c.M.M.x.& v M.M.Z.A.S.M.k.b k % % i d L Z X [ #X#X_.#XkX-X{.0 y       ",
"              7.B & h l ~.jXtX$.O j.M.v.J & k.v.M.Y V m.T x.M.M.c @ z.M.Z.I.Z.c.g.h.Y l % u.d.i.r.u.p u 5 _ ] <.[ ^ > O.        ",
"          | g h g.z.z.K C ^.dX~.O k.v.c.b & z.M.c.v v T b.M.v.h.+ b z.Z.I.M.c.g.f - $ % u i.a.a.a.a.a.d.t.r.a i 9 8.            ",
"    ..N l K l.c.c.c.M.M.J B J.P * c.K c.k s c.v.k.d & J v.Z.v.h d z.U l.x.h.Y k O p p x i.a.a.a.a.a.a.a.a.a.t.a ..              ",
"  # P C.C.M.v.M.M.v.x.k.K s o . + v k.z.s v M.v.v.h - h.x.v.z.* J K * l z g + o u i.t.x a a a u.q.q.u.u.p.a.r.j z               ",
"  # !.(.!.F.v.c.z.f.m s * B     X h v.k d x.v.M.v.h d l.A.n.Y & J & O D i # 5 $ p t.a.t.w.x p i @ g B  .e.s.a x r.S             ",
"  r Q (.(.C.k.Y n & = ..        . K v & g.v.v.v.M.J - n.Z.J * O + o x p.p.C R C i w.d.a.a.a.i.x z E  .  ..V.y.u u $ P           ",
"    ; ! !.T f * 8 4.          r + b s f.v.x.c.v.v.x.B U v.Y o % = g q.a.s.e.S S O u t.a.a.d.y.M R B 4   9.G s.r.y.q.u 4.        ",
"      8 O = L                 h l s b c.x.x.M.c.A.A.f + g.g.% + g P f t.a.t.g S k * x q.q.v F @.S C 5 >X7.M y.p.t.q.i A         ",
"                            -.k.J f x.v.k.v.v.A.S.c.h o f g.+ O $ C ; p i.t.n T b.l + I E E E U V V g 9.  G e.e.q.F J.~.5.      ",
"              9.V v U #.    P F.v.x.v.g.x.B.I.C.M.c.k = * v ; C s d l * q.r.j v T C 5 B R E E Q R S ; Y.  5.W T.<XtXpX  gX#.    ",
"            L J c.g.f.m L 4.; c.v.c.h.z.A.A.x.c.c.g.; 8.L @ 4 P d m g.c + i D D - N A E Q Q Q W I C 4     -.R.  jXjXjXjXyXU.%.  ",
"            N h.v.h = f l J h v.M.z.x.I.I.z.h.M.h.s -.     .    -.s l f ; N $.Q I I I P.K.Q E I V g +.  -.B L.R.iXiXiXyXeXR.B   ",
"            ; n.Z.h l v.D.v.k.M.c.n.I.C.v.z.h.h.d |               L ; N C U Q Q Q I N K.Q K.I N ; r 9.q y = 4 H.yXuXeX/.H.C 7.  ",
"            + K A.T J N.N.v.v.v.Z.I.M.z.v.z.b & |                   B I Q Q Q Q Q l C K.Q W B 8 # 2 q q 2 2 < S 0XR.G C #.      ",
"            H h x.C.k.v.v.M.v.v.B.v.z.c.h.k O |                       7 ; C R R E N B $.I N # H | q r Z Z 2 2 # C  .>X          ",
"              = b g.z.x.v.v.x.v.z.c.c.c.g.h r                         E I ; O ; 7 5 5 E C N C 5 ..Z q e L r 2 3 >X              ",
"              -.; f n b Y g.k.z.c.c.h.g.h 5                           P b.U 4       #.Q Q R R 5 | Z 2 8 Z Z 2 2 4.              ",
"                    ..B - s f k v v n s A                             -.U E B         #.$.%.>X'.7.  >Xe L Z q 3 3               ",
"                          7...L r B L 4.                                A W B 7.                      _ e r t q 2 |             ",
"                                                                        e 7 5 q X.                  '.X.0.o.,.,.q 2             ",
"                                                            6.7.8.Q.    ..| ..| e                     0.2.6.`.9.| 2             ",
"                                                          X.3.>.X.2 ..+.2 q Z 8 ..                      | X.+.X.e ,.            ",
"                                                        9.0.`.,.| r L q r r e q e                                               ",
"                                                        w +.6.,.q r Z Z Z Z Z r 2                                               ",
"                                                      `.< q w e 1 3 3 2 2 2 2 3 < 6.                                            ",
"                                                        +.e 2 1 3 2 | 9 3 3 3 q e 4.                                            ",
"                                                            >X`.8.`.  `.8.8.8.>X`.,X                                            "
};
