/* XPM */
static char *coin_resized[] = {
/* columns rows colors chars-per-pixel */
"64 64 119 2 ",
"   c None",
".  c #BF721D",
"X  c #D65E01",
"o  c #D95D00",
"O  c #D66203",
"+  c #D96404",
"@  c #DD6C06",
"#  c #D76308",
"$  c #D8630A",
"%  c #DA6B0B",
"&  c #DC7006",
"*  c #DE7309",
"=  c #DC790F",
"-  c #C16B16",
";  c #DA6B11",
":  c #CC741B",
">  c #D27414",
",  c #DB7611",
"<  c #D77B11",
"1  c #DC7B13",
"2  c #E16E07",
"3  c #E36E08",
"4  c #E57107",
"5  c #EA7807",
"6  c #E47409",
"7  c #EA7509",
"8  c #E47B0C",
"9  c #EC7B0C",
"0  c #F17D0D",
"q  c #E47D12",
"w  c #EA7E12",
"e  c #E37E18",
"r  c #DE7A22",
"t  c #DE8416",
"y  c #DF8418",
"u  c #E4820D",
"i  c #EB830E",
"p  c #EC8B0F",
"a  c #F6840D",
"s  c #F8850E",
"d  c #F68B0E",
"f  c #F88A0E",
"g  c #E28316",
"h  c #EB8411",
"j  c #E58912",
"k  c #EC8B11",
"l  c #E3831C",
"z  c #E98A19",
"x  c #F48410",
"c  c #F98510",
"v  c #F68B11",
"b  c #F98B11",
"n  c #F18F18",
"m  c #EE9314",
"M  c #E3901F",
"N  c #F49413",
"B  c #F89312",
"V  c #F59C15",
"C  c #F99B15",
"Z  c #F09318",
"A  c #F59E18",
"S  c #F99D18",
"D  c #F7A316",
"F  c #F9A517",
"G  c #F7A915",
"H  c #F9A817",
"J  c #F7A619",
"K  c #FAA619",
"L  c #F7A818",
"P  c #F9A819",
"I  c #DD8425",
"U  c #DF8A29",
"Y  c #E48C22",
"T  c #E28A29",
"R  c #E69327",
"E  c #EB9425",
"W  c #E99329",
"Q  c #E99828",
"!  c #E79535",
"~  c #E89D34",
"^  c #E69A39",
"/  c #F6A826",
"(  c #F9AD22",
")  c #F8B026",
"_  c #FAB42B",
"`  c #FBB82F",
"'  c #FAB732",
"]  c #FABC33",
"[  c #FBC33D",
"{  c #E69E41",
"}  c #E9A343",
"|  c #E7A849",
" . c #EAAB4A",
".. c #EDB455",
"X. c #EEB857",
"o. c #EDBC5C",
"O. c #FCC643",
"+. c #FEC945",
"@. c #F5C14F",
"#. c #FECA48",
"$. c #FCCD54",
"%. c #F3CA5E",
"&. c #FBD254",
"*. c #FBD45B",
"=. c #F0C561",
"-. c #F8CE62",
";. c #F1C568",
":. c #F4CD6A",
">. c #FBDA63",
",. c #FDDB69",
"<. c #F9DB73",
"1. c #FAE57D",
"2. c #F6DF80",
"3. c #F7E784",
"4. c #FAE582",
"5. c #FDE884",
"6. c #FCED8C",
"7. c #FAF08F",
"8. c #FCEE90",
/* pixels */
"                                                                                                                                ",
"                                                                                                                                ",
"                                                                                                                                ",
"                                              c c s a a a a a a a s s s s c s s h                                               ",
"                                              f v s v s s f f f f f s b f f f f x                                               ",
"                                  1 h 8 8 w N C D C S S C C C S C S C C S C S C A k q q q q :                                   ",
"                                  i s a c c V P K K P P P P P P P P K P P P P P K N s s c a q                                   ",
"                                  d b b b f C K K K K K K K K K K K K K K K K K F C b b d d g                                   ",
"                            q w c C K F F S K K P K K P K K K K K K K K K K K P K F F C F F S i h -                             ",
"                            w a f K P P P K K P K H H H H H H H P H H P P H P H F H P K K P C a c >                             ",
"                            k B B K P K K K N k k v p k k k p k p k k k k k k v p V P K K K F B b g                             ",
"                  w a i a x C F K K H K P K u O + O O O O + O O + O O O O O O + O k K K K F K K J C a a i x 1                   ",
"                  x s s a s C F P K P F K D 8 o O O O X + o O O O o o + o O + o O p H K J H K P J C a a c c w                   ",
"              8 j B C C C V F K P K K C 9 9 8 7 7 7 7 7 7 7 7 7 7 7 7 7 5 7 7 7 7 8 9 u C F K J F C V C C C m 1 1               ",
"            q a b F F F K K K K P K K k O O 7 s c a x s s s s s s s s s s a s s a 3 O + N L K K F P K K P K F d x q             ",
"            w a b K K K P K P P P D C k + + 7 s s s s s s s s s s s s s s s s s d 4 + @ m D D J H F P F K K S b x 8             ",
"            h x b K K K K K K P C 8 @ 6 9 0 a s a s s s s s s s s s s s a s B S D v 0 9 6 @ u S P P K P K P F d a q             ",
"            w c b F K K K K H G V % X 3 c s s a a a s s s s s s s s s s s a B K J B c 0 + X * F H P K K F P C b s 1             ",
"            k v N K K K F K C m p @ @ 4 a s a s a a s s s s s s a a s s f f B K K C b v 4 + 6 Z N F P K F K J d b e             ",
"        x x C F K F K J K F 8 O @ 0 a a s a a a s s s s s s s s s s s b S K F K J C F S v s 7 @ + i K P J K F F D C x 0         ",
"        a x S P K K K L P K 6 o + 0 s s s a a s a s s s s s s s a s s f F K K K F J P F v s 0 + O u P P P H F P K C a a         ",
"      z B C F P K K K N k h 8 4 5 a s s s s s s s a s s s s s s s f B C K P K K K F K F C N n Y M z j j C P K K K A B N t       ",
"  a s C J K K K K K K u O O 5 c a s s s s s s s s s s s s s s s v C K K K K K P K F K K K K ) O.O.E O O m P J P K K K J N a x   ",
"  s a C J K K K K K F h O + 5 s s a s s s s s s s s s s s a s s d C K K K P K K J K K K K K ) O.+.Q $ % m J J K K K K F B s a   ",
"  s s B K K K K S 8 6 8 5 5 a s s s s s s s s s s s s s s a b C V F K P K K K K K J ( K J K ) O.+.X.o.X.U 8 h C K K P K B s s   ",
"  a a C K K K K Z + X 3 s s c a s s a s s s s s s s s s s s C K F K K P K K P P K K K K K K ) O.+.,.6.3.U X @ A P K K K B s s   ",
"  s s V K K P P N + X 4 x s s a s s s s s s s s s s s s f f C P K K K K P K K P K K ( P ( / _ O.+.,.6.1.Y X @ D K P K K B s s   ",
"  c f B P K K P N + X 4 a s s s s s s s s s s s s s s f C C F F K K P K K K P K K K K P ' ] O.+.+.,.6.4.T o @ C P K P K B s s   ",
"  c s C H K K P m + X 4 a s s s s s s s s s s s s s a f K K K F K P K P P K P K H K K P [ +.+.+.[ ,.7.1.T o @ D P P P F B s s   ",
"  x a B H K K P N + X 4 a s s s s s s s s a s s s f B B K K K F K K P K K P F K F ( ) _ [ #.+.+.+.,.6.5.T X @ C K K P H b s s   ",
"  c s C H K K P N O O 4 s c a s s s s s s s s 0 f C F P K K K K K K P P P P P F L ` +.+.+.#.+.+.+.,.6.1.T o & C P K P F B s s   ",
"  c s C K P K P N O O 4 c s s s s s a s s s s s f C F F K K F K P F F K K K K P L ] +.+.+.#.+.+.+.,.6.4.T X @ C P K H P b s s   ",
"  c a C P K K P N + o 4 s a s s s s s s c a b B B F K P P F F K K F P P K K P ] ` [ +.+.+.#.#.+.O.,.7.4.T o @ V P P P K B a s   ",
"  s s B P K K P N + X 4 s s s s s s s s s a C K K K P K P K F K P P P P P K _ +.+.+.+.#.+.#.#.#.O.,.6.4.U o @ C P P P J B s s   ",
"  a s C P K K K m + O 4 s c s s s a s s d a B K K K K P K K J P K K K P P P _ +.+.+.#.+.O.#.+.+.O.,.6.4.T X @ V P K P K B s s   ",
"  s s C P K K P N + X 4 a c s s s s x b C C F J K K P K P F F K K K K K ] ] [ +.+.+.+.O.+.+.+.+.+.,.6.1.Y X & V H K K K B s s   ",
"  s f C J K K P N O O 7 s s s s s s s b K K K K K K K K P F F P P P H ( O.+.+.+.+.+.+.+.+.+.+.+.[ ,.6.1.U X @ D K K F K B s s   ",
"  a a C P K K P N O O 4 s s a s f b f B K K K K K K P P P F F K K P ( _ O.+.+.+.#.O.+.+.+.+.+.+.+.,.6.1.U X @ V P K K K b s s   ",
"  x s B K K K L N + X 4 a s a a c C F F K K K K K K K K K J F F P ] [ O.+.#.+.+.+.+.+.+.+.+.+.+.O.,.6.1.T o % V K K F K B s s   ",
"  a s B K K J L m O X 4 s s a a b F K K K K K K K K P K K L J K ( ] +.#.#.+.#.#.#.+.#.+.+.+.+.+.+.,.6.3.U o @ C K K K K B s f   ",
"  x a C K K K P N 8 8 8 9 9 a s b F F P K K K K K K K K K K ( _ _ [ +.O.#.+.#.+.+.+.+.+.+.+.#.*.*.%.o.X.Y 8 u C F K P K B c s   ",
"  a a B K K J J J F J u + + 5 a b S F K K P K K K K K K F F _ O.+.+.#.+.+.+.+.#.+.+.+.#.+.+.*.1.6.| $ @ n J K K P K P K B c s   ",
"  a a V K K P K K P K p O O 9 s v F F K P K K K P P K K P L ` +.+.+.#.+.+.#.+.+.+.+.+.#.+.#.*.4.6.| O + N K K K K K K K N a a   ",
"      j B B F P P K K N h h 8 3 7 N N B K P K P P K K ( ` ` [ +.+.#.+.+.+.+.#.+.+.+.+.#.>.,.%.| ^ R j j C F K K P C B B t       ",
"      < a c A K K K F F L J * O + a s B K K K K K K K ) O.+.+.+.+.+.+.+.#.#.+.#.+.+.+.#.1.8.;.; O u F F K P K K P B s a         ",
"        i d C F K F K K H D 8 % @ 0 a b K K P K K ( P ) O.#.+.+.#.#.#.+.+.+.+.+.+.+.#.$.<.3.o.% + j K F K K K F J C x i         ",
"            j f B K F J K F N Z x * @ 9 K F K K L ] [ [ +.+.+.+.+.+.+.+.#.+.+.+.+.*.1.<.! I I m N V K J K P D B b l             ",
"            q s f K H F K P P L N % o 8 F L F K P [ +.+.+.+.O.+.+.+.+.+.+.+.+.+.+.1.6.1.r X * D P K P F K P C s c g             ",
"            q a b F F H K P K K C 8 @ 8 V N / ' ' #.*.&.&.&.&.&.&.*.&.&.&.&.&.&.*.-.:.=.Y 2 8 F P P P K K K F s a 8             ",
"            8 a B K K F H F F F K F A k @ %  .1.1.5.5.5.5.5.5.5.5.5.5.5.5.5.4.4.1.^ , , z A D J L P F F K K S f v 8             ",
"            g a f J H F F F P P P P P p O # ..7.6.6.6.6.6.6.6.6.6.6.6.8.8.6.6.8.6.^ X + N H K K F F P P K K F b a 1             ",
"            . = u C V C V C F F F F K N 8 8 ~ ............................X.X.X...R 8 u C K K K F F C C C S m 1 >               ",
"                  i s s s d V J K K K K K D 8 + + O O O # # O $ $ + $ O + # # O # k F J K P K K F C a x s c 8                   ",
"                  9 a i a a V F K K K K K J u + O O O O O O O O + X O O O O O O O p K K K P K K G B a a a x <                   ",
"                            k N B K P K K K m j k k k p k k p k p k k k k k p k p V K K K P S N N t                             ",
"                            8 a b K K P K P H K K K J H H P H H K P P K P H F H J K K P K K S d a >                             ",
"                            q w x S K K K F F K K K K K K K K K K F P K K K K K F S F F F K C x w -                             ",
"                                  p d f f f C F K K K P K K K K K K K P K K K K F C b b b x g                                   ",
"                                  a a s s s V L ( K K K K K P K K P P P P P K P K B s s s a q                                   ",
"                                  1 q w w q n C S S S S S S C C S C S C C S S S A z q u q w :                                   ",
"                                              f b s f s d a s d s b c f b d s f a                                               ",
"                                              x c a a a a a a a a a a a a a a a i                                               ",
"                                              < , , = , , , , , , , , , , , , = >                                               ",
"                                                                                                                                "
};
