/* XPM */
static char *closed_door_removebg_preview_resized[] = {
/* columns rows colors chars-per-pixel */
"64 64 209 2 ",
"   c None",
".  c #1F222A",
"X  c #20222B",
"o  c #352E27",
"O  c #37332C",
"+  c #2C3237",
"@  c #2F3438",
"#  c #3C3A35",
"$  c #343A3B",
"%  c #3B3E3D",
"&  c #323535",
"*  c #4A2C19",
"=  c #562E1B",
"-  c #592F1B",
";  c #56301C",
":  c #5B321D",
">  c #4B311E",
",  c #63391A",
"<  c #693A1E",
"1  c #62341D",
"2  c #473426",
"3  c #533524",
"4  c #5F3320",
"5  c #5B3925",
"6  c #5B3B29",
"7  c #413E37",
"8  c #462E20",
"9  c #623421",
"0  c #693722",
"q  c #6D3B23",
"w  c #623E28",
"e  c #743C25",
"r  c #793F27",
"t  c #7A3E29",
"y  c #713B29",
"u  c #3B413F",
"i  c #46423A",
"p  c #4B453B",
"a  c #4E483E",
"s  c #494237",
"d  c #544A3F",
"f  c #5C4636",
"g  c #5A412F",
"h  c #69422A",
"j  c #69452A",
"k  c #744222",
"l  c #794325",
"z  c #7C4925",
"x  c #74442A",
"c  c #7D412A",
"v  c #79492D",
"b  c #6F4D35",
"n  c #393F40",
"m  c #3D4241",
"M  c #424644",
"N  c #444946",
"B  c #4B4944",
"V  c #454A49",
"C  c #4A4E4B",
"Z  c #4B4741",
"A  c #534D42",
"S  c #514F49",
"D  c #5D4B40",
"F  c #4D524E",
"G  c #54524B",
"H  c #575147",
"J  c #4E5450",
"K  c #525652",
"L  c #555A55",
"P  c #5A5C55",
"I  c #5B5E59",
"U  c #565C59",
"Y  c #64554A",
"T  c #67574B",
"R  c #695E51",
"E  c #5D625C",
"W  c #62655D",
"Q  c #69645B",
"!  c #726357",
"~  c #636761",
"^  c #666A63",
"/  c #6A6D65",
"(  c #6A6E69",
")  c #676D68",
"_  c #706E6D",
"`  c #6C7067",
"'  c #6D726A",
"]  c #72756C",
"[  c #74796E",
"{  c #797B6F",
"}  c #747572",
"|  c #767B71",
" . c #7A7D73",
".. c #7C7F7B",
"X. c #777878",
"o. c #83432C",
"O. c #89462E",
"+. c #834C2A",
"@. c #8B4A2E",
"#. c #804B26",
"$. c #914E2F",
"%. c #85512A",
"&. c #8B532B",
"*. c #8D5B2C",
"=. c #835027",
"-. c #945D2E",
";. c #995D2F",
":. c #92542F",
">. c #8B4532",
",. c #8D4A31",
"<. c #854A31",
"1. c #944D32",
"2. c #994D37",
"3. c #8E5331",
"4. c #875634",
"5. c #945332",
"6. c #9C5334",
"7. c #965A33",
"8. c #9C5B34",
"9. c #9D5A3A",
"0. c #A05635",
"q. c #A35B36",
"w. c #A2543A",
"e. c #A45C39",
"r. c #AA5C3A",
"t. c #A95B3A",
"y. c #9B612F",
"u. c #93612F",
"i. c #9C6231",
"p. c #9F6932",
"a. c #A46435",
"s. c #A46C35",
"d. c #A96B36",
"f. c #A6623A",
"g. c #AC633B",
"h. c #AD6A3B",
"j. c #A86235",
"k. c #B3653D",
"l. c #B46B3D",
"z. c #BA6D3F",
"x. c #AB7137",
"c. c #AD7239",
"v. c #A77136",
"b. c #B4733B",
"n. c #B9743E",
"m. c #B67A3C",
"M. c #B97B3E",
"N. c #B15D41",
"B. c #8E6644",
"V. c #A56745",
"C. c #B56B40",
"Z. c #BB6D41",
"A. c #B66343",
"S. c #BD7342",
"D. c #BD7D41",
"F. c #82746A",
"G. c #C26E45",
"H. c #C36F49",
"J. c #C37544",
"K. c #C57A44",
"L. c #CA7D46",
"P. c #CA754A",
"I. c #CD7E48",
"U. c #C67647",
"Y. c #D27D4D",
"T. c #7D8076",
"R. c #7E8279",
"E. c #BA823F",
"W. c #808277",
"Q. c #81857B",
"!. c #85897E",
"~. c #C48342",
"^. c #CB8147",
"/. c #C68943",
"(. c #C98946",
"). c #CE8149",
"_. c #D2844B",
"`. c #D6894D",
"'. c #D98C4E",
"]. c #D8874F",
"[. c #DC934E",
"{. c #DE9B4F",
"}. c #D98551",
"|. c #DC8C51",
" X c #DE9351",
".X c #DE9950",
"XX c #E18E54",
"oX c #E29453",
"OX c #E49B55",
"+X c #E79658",
"@X c #E99B59",
"#X c #E89858",
"$X c #848582",
"%X c #858A82",
"&X c #898D84",
"*X c #8B8B8A",
"=X c #8A9086",
"-X c #8C9289",
";X c #91958D",
":X c #93988F",
">X c #959A90",
",X c #9C9B99",
"<X c #A49082",
"1X c #BCA18F",
"2X c #A7A8A7",
"3X c #B5A9A1",
"4X c #C4AB9C",
"5X c #C6BAB2",
"6X c #D0C4BD",
/* pixels */
"                                                    V [ T.[ T.T.T.T.' ^ / W                                                     ",
"                                                    n ] | [ T.[ T. .] ' / U                                                     ",
"                                                    u ` ] T.T.] T.[ ] ] [ U V                                                   ",
"                                              E | ` C E ' T.] ` | T. . .[ L ) Q.| L             V                               ",
"                            E | J         U R.R.R.| K F ] ] ) ) | | [ T.' L  .Q.R.R.R.E       P %X~ +                           ",
"                          ^ %XR.) m   J %XR.| | ' ' E m ' T.] T. .| | T.' U R.| ' ' | %X( % K !.!.-X` @                         ",
"                        | R.| | T.) U | %X| | | | ] ) V T.R.R.R.R.T.T.[ ) E R.| ] ' ` | ' U !.!.!.Q.Q.W +                       ",
"                      ) T.[ [ ] ] ] ) E | R.T. .T.] ) F ) ] T.T.| T.| ' ~ ) R.| | ] ' ] G / &X!.&XQ.W. .U                       ",
"                      R.| ]  .T.T.T.T.E E T.[  .] W K M G R Q Q Q Q Q R G I ' ' | | | W I !.!.!.!.!.!.Q. .V                     ",
"                      E ] ] ] | | [ | | J ^ ] ` T * y v v 9.9.v f.V.9.<.<.x 3 T W ' ' G !.Q.Q.W.T.R.!.Q.I                       ",
"                      @ U | T.] ] ] T.T.^ B d 6 +.@.8.e.e.e.e.v C.A.V.r.N.e.9.2.h d B ) &XQ.W.W.W.T.R.U                         ",
"                      @ F L | | [ | | ] J 8 x a.e.8.e.g.r.V.C.4.S.H.C.C.C.C.V.V.8.y 5 E !... .Q.!.| P P                         ",
"                      L T.E E | ] ] ] G 3 q 7.C.f.e.g.C.C.C.S.4.^.Y.P.S.S.S.C.S.f.3.9.6 S ) _  .| K (  .F                       ",
"                    N R.R.| L ^ ] ~ F 3 v <.7.S.l.h.C.S.U.S.K.7._.}.).I.).P.H.D.f.5.S.4.6 Z W W G ) Q.R.] u                     ",
"                    ' Q.| | ^ V L a 6 +.i.5.7.S.S.S.K.I.).L.).7. X|.|._._.).)._.C.8.U.C.5.6 M N ' %XW.Q.T.^                     ",
"                  L T. .[ T.T.~ u 3 <.e.d.7.V.I.K.K.).)._.)._.s..X X}.`._._._.}.S.d.).S.C.7.5 S R.T.Q.!.Q.{ F                   ",
"                  W T.[ T.R.T.E > +.f.h.h.i.C._.).^.).).].`._.d.@XoX'.'.`._.`. XD.V.}.D.S.Z.7.6 P  .Q.W.T.T.E                   ",
"                F F W [ [ T.] 2 +.i.h.C.S.a.C.'.`.).`.`.'.'.`.d.OXoX|.'.`.`.).`.~.C.|.^.S.S.C.3.g [ W.{ [ W F N                 ",
"                ] ` E E ` T.P : 9.f.C.S.D.h.D.'._._.`.`.'.'.`.v.OX X`.`.).`.).`.^.S. X_.I.U.S.h.4.H ] ` E E W E                 ",
"                [ T.[ T./ ^ f =.f.h.J.L.~.h.m.'.`._.[.`.'.'.].d.OX X`.`.).`.`.`.L.c.|.`.^.L.S.C.a.f K E T.[ [ Q                 ",
"              ^ { ] [ { | A h ;.g.S.I.^.).b.~.|.`.`.[.`.].]._.d.OX|._.`.).`._.`.~.x.[._.I.I.D.S.g.x B [ { [ [ ] J               ",
"              E { ] ] ] ' Y #.a.C.U.I.)._.b./. X`.|. X`.`.}._.d.OX X_._.^.`.).`.L.x.[.`.).~.K.S.S.7.T ` ] [ ] { E               ",
"              I T.` ] ] ` T 8.b.K.L.).)._.b./. X`.|. X]._._._.d.OX`._.).)._._.`./.x.[.).).L.K.D.b.g.R ` ] ] ` { E               ",
"              W ] ] ` ` P x h.z.D.L._._.`.n.~. X`.`.|.`.)._._.a.OX|.`._.)._._.'.^.x.[.`.^.I.I.K.z.C.4.P ` ] ] ] W               ",
"            V E I U U U p +.S.K.I._._.|.`.m./.oX].'.`.`.(._._.s.OX|.].`.).`.'. X^.c..X`._.`.(.^.D.L.%.i K L L K E V             ",
"        W } &X-X;X>X>X%Xp *.I._.)._.'.'.|.m.(.#X`.`.`.`._._.`.s..X|.[.`.'.'.'. X~.m.oX|._.`._._.I.U.%.p R.-X%XQ.-X-XQ.{ W       ",
"        | ' | ' ^ ' | ' s y._.I.)._.'.|. XS.(.+X_.`.`.).`._.`.b..X|.'.`.[.'.|. X^.m.+X}._.`.)._.).L.i.a '  . .T.!.| ] { U       ",
"        &X]  .} ] / ' ' s ;._.).).).'.].'.S./.+X`.`._.`._._._.b..X'.'.[. X`.`.|.^.m.@X`._.`.`.`.).).a.d ..| ..Q.!. .[ | P       ",
"        =X]  .!.!. .' ' p y._.).).'.'.`.].S./.+X`.)._._._.`._.d.[.'.'.'.'.`.`.`.~.M.@X`.).`._._._.`.v.A ..'  . .W.T. . .U       ",
"        %X[  .T.!.W.| ' p y.).).).`.`.`.`.n./.+X`._._._.).(.`.d.{.'.'.oX[.`.`.`.K.m.@X`.`.)._._._. Xb.A &X] |  .T. . .{ P       ",
"        | ]  . .| F.R.' p i._.).).].]._.`.n./.+X).`.).).`.).`.d.[.'.].|.|.`._.`.K.m.@X`.).)._.)._.[.b.H -X . . . . .[ [ U       ",
"        ] / ( ' ( ' | ' p y.I.L.)._.]._.`.b./.+X).).).).).).).d.{.'._.'.|.}._.`.K.m.@X_.).).)._._.[.m.A %X| ] ' | [ ` / K       ",
"        ) ~ W W ~ ^ ' ^ g y.I.I.L._._._.`.n.).oX).).).).).).).p.{.'._.'.].]._.].K.M.#X_.I.)._.).)..Xm.a | ' ' ) ^ ^ E E F       ",
"        F J K F F F F F s ;.).I.)._.`._._.z./.oX).).).L.).).).;.{.'._.`.`.`._._.J.M.OX_.).L.).).I.oXs.s F F J F F F C C V       ",
"            $ L ' | ' E p -.I.].Y._.`.I._.l.~.[.).L.).)._.).).y.{.}.I._._.`.Y.`.J.c.{.^.).L.).).I.oXv.s E } ..' L $             ",
"              | ;X:X!.{ a y.).).L.`._.I.`.j.M.oX).L.L.L.).).L.;.[.'.).Y._._.I._.n.d.oX^.L.L.^.).L.[.v.a R.%XQ.| W @             ",
"              ] &X&XT.{ p y._.)._.).`.)._.b.M.[.).).).)._.).).;.[.].I.).I._.I._.n.x. XL.L.U.I.I.U.[.v.a -X .] ] W @             ",
"              ^ R.$X .[ d y.^.)._.)._.).).n.~.[.).).).)._.^._.j.[.].I.I.I._.I.^.J.m.[.K.K.U.P.I.L.].v.d =X[ | [ ^ @             ",
"              W [ T.F. .p y._._._._.).).).n.^.|.).).).).).).^.d.[.Y.L.I.I.I.L.^.S.m..XK.J.j.A.V.l.).m.d Q.' ' ] ^ @             ",
"              W ] W.T.' p y.L.I.).)._.).).n.~.'.).^.).)._.).).d.[.Y.I.).^.I.I.I.K.c.oXK.V.3X5X6X4XD.b.d R.' ) ) W @             ",
"              ^ [ { ] ` a y.L.K.).).).).).b.D.'.).).).).).Y.^.j.[.Y.L.I.).^.L.I.K.x.[.n.y _ *XX.F.M.m.A | ( ~ E P @             ",
"              W ` / W W s y._.L.).).^.)._.j.M.'.L.).).).Y.).L.;.[._.L.I.).)._._.D.d.[.z.* 7 *X) Y c.x.p ' ' ~ W I @             ",
"              P E E U F s y._.I.Y.).).L._.d.E.[._._.).)._._.).y.[.].^.).`.).^.].M.v.[.z.T ..$X,X>XB.-.7 E ~ E E P @             ",
"            V C F F V m s p._.L.).L.).L.).j.~.[._._.^.)._.]._.j.oX'.I._._.).).].J.v.[.*.2XX.I I 2X1Xz i V F F F F m V V V @     ",
"         .&X;X>X>X:X=XR.f y.).^.I.L.I.L._.b.~.oX_._.).).).`.).j.OX].^._._._.).].n.d.[.j Q.# & & K <X< Z %X&X-X&X&XW.Q.{ E @     ",
"        R. .[ [ T.T.T.` s y.I.L.^.J.L.L.).k.M.XXY.).)._._._.).&.[.`.I.I.^.I.I.].J.x.[.h _ K E B C F., Z $X/ / ` ]  .Q. .U @     ",
"        Q.[  .T.T.{ { / p y.I.L.I.L.I.J.I.j.x.XXY.).`.).L._.L.=.'.].L.L.).^.I.).n.v.[.h _ } K M X.! , p W.~ W ] W.%XQ.{ U @     ",
"        Q.] T.Q.T.[ [ ` s ;.L.L.L.L.I.J.I.;.x.XX_.L.).L.Y._.).#._.`.K.K.I.I.I.I.l.p.'.+.Z $X2X2X( 2 : a &X` / [ W.%XW.{ U $     ",
"        =X[ R.Q.T.[ ` / p ;.I.I.J.J.J.G.J.;.c.XXI.I.I.I.L.L.).&._.).K.K.L.L.L.I.h.u.'.&.* o o O 2 z l p -X .[  .W.{ { { U $     ",
"        !.| T.T.T.[ ] / p ;.P.P.J.G.z.z.z.@.s.}.P.J.L.I.K.L.L.&.[.).J.J.J.L.J.P.j.-.`.8.&.=.=.=.:.n.*.i &XR.R.T.W.T.] { I $     ",
"        Q.| { W.W.[ ` W p ;.J.J.G.z.z.k.z.$.d.}.J.G.J.L.J.L.J.#.`.L.z.n.J.J.z.J.j.-._.j.J.J.K.z.J.`.u.i R.R.T. .W.Q.[ ` L $     ",
"        [ { { [ ` W / E s 5.G.J.G.k.z.k.k.+.p._.G.z.G.L.z.J.z.z _.J.k.k.z.z.z.z.q.*.U.a.z.z.z.q.f.S.*.7 ' | T.] [  .] ^ C       ",
"        L E E K J K K L s 5.G.G.k.r.k.r.k.#.s.Y.z.k.z.J.z.z.z.#.).J.j.j.k.l.k.z.;.%.J.0.q.q.q.5.8.z.*.# V F J J L L C M m       ",
"            u F ) ' ) E s O.k.r.q.q.r.t.r.z p.P.k.k.z.z.k.z.k.#.L.z.j.j.r.g.j.k.5.=.S.$.5.8.:.O.@.l.%.# U ` ' ` L m             ",
"              / | R.F...p o.0.0.0.0.0.0.0.r a.P.r.r.k.k.r.k.k.k L.k.0.0.r.r.q.r.$.#.z.$.$.6.@.+.@.a.=.i T.Q.R.T.^ @             ",
"              W ' |  . .7 c 6.6.6.6.6.6.6.e y.H.t.0.r.r.r.r.r.r J.j.0.0.0.0.0.0.$.#.z.O.#.o.l l #.q.=.s =X] ' [ W @             ",
"              W | | | ] p l 1.1.1.1.1.1.1.e @.A.0.1.0.0.0.t.q.e G.r.6.1.6.6.1.6.o.z j.O.r o.r r o.6.*.a -X] { | W $             ",
"              / T.} ' ] i y ,.@.O.,.>.O.O.< O.N.2.1.1.1.0.6.6.r k.0.O.O.@.1.@.O.o.q 0.r e r o.l r &.k i Q.' | | ) @             ",
"              ]  .' | ] i q O.o.o.O.o.c o.1 #.t.O.O.,.1.1.1.1.< r.2.O.o.o.O.O.O.e < 2.e e r l e r #.< i T.] ] | ' @             ",
"              ` | ' ' ~ 7 q c r t c c t e 1 l 6.o.o.O.O.$.O.O.e t.1.t t r c o.t e 1 >.e q e r e e o.< u ] ]  .T.]               ",
"              ^ ] ^ ~ E 7 q t e e e t y e - y 2.c c c >.>.c >.0 w.>.t e e r t r y - o.e q q e q < c e s ' ] T.Q.] @             ",
"              U ~ E E L Z 0 t e e e t q 0 - e 2.t t t t o.t c 0 w.>.t y e e t e 0 = c q 0 0 q q 0 e < # ~ ^ ) ' ~ @             ",
"                          4 : 4 4 : 4 : - = - y 9 9 9 4 0 4 9 : y 0 4 - - 1 - 1 ; * 9 ; = - : ; ; : ; O $ m m M N @             ",
"                                          . X X X X X X X X X X X X X X X . X X X X X X           X                             "
};
