/* XPM */
static char *opened_door_removebg_preview_resized[] = {
/* columns rows colors chars-per-pixel */
"64 64 173 2 ",
"   c None",
".  c #000000",
"X  c #0A0502",
"o  c #0F0804",
"O  c #070709",
"+  c #070809",
"@  c #0E0E0E",
"#  c #140A05",
"$  c #1A0E06",
"%  c #150E09",
"&  c #0F100F",
"*  c #15110D",
"=  c #1C130C",
"-  c #0F1010",
";  c #121313",
":  c #191412",
">  c #1C1815",
",  c #17191A",
"<  c #1A1B1C",
"1  c #23140A",
"2  c #2B160B",
"3  c #27180D",
"4  c #2D190C",
"5  c #331D0D",
"6  c #381F0F",
"7  c #251911",
"8  c #2A1C12",
"9  c #211E1B",
"0  c #331D10",
"q  c #3A1E11",
"w  c #39240E",
"e  c #26221E",
"r  c #352115",
"t  c #3C2312",
"y  c #322319",
"u  c #1B1E23",
"i  c #1F2123",
"p  c #242323",
"a  c #282927",
"s  c #272A29",
"d  c #292A29",
"f  c #292624",
"g  c #302923",
"h  c #383024",
"j  c #292E36",
"k  c #2E3435",
"l  c #2B3038",
"z  c #333533",
"x  c #32373A",
"c  c #353A3C",
"v  c #432514",
"b  c #492716",
"n  c #462915",
"m  c #4C2B16",
"M  c #412A1A",
"N  c #4F2C1A",
"B  c #4B2719",
"V  c #502F17",
"C  c #512E19",
"Z  c #5A2F1C",
"A  c #55321A",
"S  c #5B341C",
"D  c #5D381A",
"F  c #633B1E",
"G  c #683E1F",
"H  c #61331E",
"J  c #473727",
"K  c #483727",
"L  c #483827",
"P  c #453729",
"I  c #4C3A29",
"U  c #593924",
"Y  c #503D2A",
"T  c #583422",
"R  c #653622",
"E  c #6B3723",
"W  c #633920",
"Q  c #6B3A22",
"!  c #613F29",
"~  c #733C25",
"^  c #3F433F",
"/  c #6C421E",
"(  c #70451F",
")  c #5F442B",
"_  c #4E463B",
"`  c #51473B",
"'  c #674120",
"]  c #6E4222",
"[  c #66452A",
"{  c #724323",
"}  c #7B4327",
"|  c #7C4429",
" . c #604C3A",
".. c #7D5130",
"X. c #3A3F40",
"o. c #363C41",
"O. c #3D4241",
"+. c #424643",
"@. c #444946",
"#. c #4E4A43",
"$. c #464B4A",
"%. c #4A4E4B",
"&. c #524E46",
"*. c #5B4E40",
"=. c #4C514D",
"-. c #54534C",
";. c #4E5351",
":. c #515652",
">. c #555A55",
",. c #585C56",
"<. c #565B59",
"1. c #5A5E59",
"2. c #5D625B",
"3. c #62655E",
"4. c #65695F",
"5. c #5F6560",
"6. c #626661",
"7. c #656963",
"8. c #6A6D65",
"9. c #666D68",
"0. c #6A6F69",
"q. c #706E64",
"w. c #6D7067",
"e. c #6D726A",
"r. c #72756C",
"t. c #75796E",
"y. c #787B6F",
"u. c #747770",
"i. c #767B71",
"p. c #7A7E73",
"a. c #7A7F78",
"s. c #82462A",
"d. c #844B2A",
"f. c #8C4D2D",
"g. c #895026",
"h. c #8D542D",
"j. c #93532E",
"k. c #94592F",
"l. c #8F5730",
"z. c #915931",
"x. c #9C5C32",
"c. c #905532",
"v. c #A15F35",
"b. c #9E6234",
"n. c #A36235",
"m. c #A96537",
"M. c #AC6937",
"N. c #A56338",
"B. c #AB6539",
"V. c #AD6B39",
"C. c #B36C3D",
"Z. c #B86F3E",
"A. c #AE7139",
"S. c #B5723D",
"D. c #BA713F",
"F. c #B47A3D",
"G. c #BB7D3E",
"H. c #B77340",
"J. c #BC7440",
"K. c #C07641",
"L. c #C27943",
"P. c #7D8076",
"I. c #7D8279",
"U. c #808276",
"Y. c #81857B",
"T. c #85897E",
"R. c #888B7F",
"E. c #C18041",
"W. c #868B82",
"Q. c #898D84",
"!. c #8B9086",
"~. c #8E9389",
"^. c #91958C",
/* pixels */
"                                                                                                                                ",
"                                                                                                                                ",
"                                                        :.T.I.I.I.I.I.I.Y.p.;.                                                  ",
"                                                        W.W.T.R.W.W.W.I.I.a.a.                                                  ",
"                                                        Y.P.P.I.p.I.U.0.9.e.7.                                                  ",
"                                                        r.P.P.y.p.U.p.7.7.w.2.                                                  ",
"                                                        2.P.i.P.p.N.p.r.8.9.=.                                                  ",
"                                                        2.t.t.P.a.W.p.r.0.e.%.                                                  ",
"                                                    $.^ ;.r.y.P.9.a.a.u.r.w.;.>.$.                                              ",
"                                                2.I.I.0.$.0.t.r.9.a.I.a.p.0.>.Q.Q.I.6.          6.                              ",
"                                7.P.r.      7.r.I.i.r.0.@.2.t.r.e.u.9.a.p.7.5.Y.r.e.I.I.<.  c t.Q.u.                            ",
"                              e.I.I.P.2.;.9.Q.I.r.r.e.r.=.2.T.P.I.I.I.I.P.5.e.I.r.9.e.a.P.:.i.!.T.R.e.                          ",
"                            9.P.r.r.P.e.e.2.P.I.I.I.P.e.2.2.t.P.I.I.I.u.r.2.a.i.i.r.e.r.2.2.!.R.T.Y.P.7.                        ",
"                            I.r.e.P.P.r.P.2.2.I.i.i.e.7.=.$.2.2.5.5.7.2.2.=.e.e.i.i.t.w.>.P.R.R.R.Y.Y.P.2.                      ",
"                            e.e.e.P.e.P.P.r.>.0.t.e._ y 3 r : * @ @ @ @ @ + ; s 2.0.r.,.i.R.Y.U.P.Y.R.t.$.                      ",
"                              7.P.P.r.e.P.P.9.&.` t w 5 4 4 # . . . . . . . . . + s O.2.R.Y.U.U.P.I.r.@.                        ",
"                              =.7.i.i.t.P.r.-.I V m n w 4 4 # X . . . . . . . . . . O +.I.p.p.Y.T.0.,.%.                        ",
"                            0.a.,.e.i.e.e.-.U } W A n r 5 4 o X . . . . . . . . . . . O c 7.w.p.0.>.P.0.                        ",
"                          2.W.P.e.:.e.7.&.U d.z.] A n t 5 4 # X X . . . . . . . . . . . X k ,.>.,.P.U.U.2.                      ",
"                          P.P.r.i.,.$._ U l.b.x.' A n t 5 4 o X . . . . . . . . . . . . . . s =.I.Y.Y.T.p.$.                    ",
"                        7.p.y.y.U.p.#.[ l.x.B.b.{ D m n 5 2 # X . . . . . . . . . . . . . . O ^ u.P.Y.Y.P.w.                    ",
"                        2.r.y.P.a.3.) b.A.x.H.N.{ W V n 5 5 $ X X . . . . . . . . . . . . . . O =.P.I.y.y.4.O.                  ",
"                      5.,.2.w.r.a.*.h.H.H.N.H.x.] H V n 6 4 $ X . . . . . . . . . . . . . . . . f w.p.w.2.>.>.                  ",
"                      t.P.e.9.w.8...m.H.J.N.H.x./ F V v 5 2 $ X . . . . . . . . . . . . . . . . . ^ 2.7.e.t.8.                  ",
"                    <.y.r.y.P.0. .V.C.J.G.V.S.x.] F m v 5 2 # X . . . . . . . . . . . . . . . . . , ,.p.i.r.r.:.                ",
"                    >.y.t.r.r.w.[ D.C.L.E.C.C.n.G S m t 4 2 # X . . . . . . . . . . . . . . . . . O 3.r.r.t.t.3.                ",
"                    :.p.e.r.e.7.[ J.J.L.J.V.H.v.G A n v 4 2 # X . . . . . . . . . . . . . . . . . O ,.w.r.r.y.4.                ",
"                    ,.w.w.w.w.` ' J.C.H.F.N.C.n.] A n v w 4 # X X . . . . . . . . . . . . . . . . . d 4.w.q.r.6.                ",
"                  ;.7.7.7.7.<.P / H.N.H.A.n.Z.B.{ F V n y g 9 = X . . . . . . . . . . . . . . . . . ; =.3.2.1.6.>.              ",
"              ,.0.W.Q.Q.!.~.e.I ' H.B.H.F.m.H.m.] F N n y d 9 = X . . . . . . . . . . . . . . . . . - 2.W.W.Y.!.Q.Y.t.>.        ",
"              0.u.u.r.7.0.u.6.Y ( S.V.H.H.V.D.N.] D N t 7 p d 9 o . . . . . . . . . . . . . . . . . @ 1.i.p.a.W.i.r.t.-.        ",
"              a.p.p.p.i.r.w.6.I ( H.C.J.G.V.S.n.] F N t > p p 9 O . . . . . . . . . . . . . . . . . - 7.a.p.p.Y.p.p.t.:.        ",
"              p.p.i.Y.R.P.r.3.L ( J.C.L.K.M.C.x.] T m t e p ; > X . . . . . . . . . . . . . . . . . @ 0.p.r.p.P.p.p.u.:.        ",
"              w.i.P.p.P.U.P.2.) ( D.D.L.G.M.M.x.G A n t f ; ; : X . . . . . . . . . . . . . . . . . @ e.I.p.P.P.p.p.t.-.        ",
"              6.e.r.r.r.t.P.3.I ( D.K.L.G.M.B.x.F V n 8 p , > % X . . . . . . . . . . . . . . . . . @ 0.Y.u.u.u.u.w.0.=.        ",
"              2.0.7.4.4.7.r.2.I / D.K.L.G.n.m.k.F V b 3 p p : # X . . . . . . . . . . . . . . . . . - 7.P.r.0.e.0.4.2.%.        ",
"              =.>.>.:.:.:.>.=.L / F.K.L.F.x.M.v.G m v 3 < > 1 1 X . . . . . . . . . . . . . . . . . - %.>.:.>.:.:.-.=.          ",
"                  x :.7.e.7.:._ / D.K.L.V.x.C.v.F m t 3 * = 3 1 X . . . . . . . . . . . . . . . . . - %.6.u.w.>.c               ",
"                    w.^.^.R.8.L / S.J.K.A.x.C.v.F b t 4 3 8 2 $ X . . . . . . . . . . . . . . . . . - 6.W.Y.p.7.x               ",
"                    0.Q.R.P.8.L G S.J.L.S.x.C.v.F b v 0 q 0 2 $ X . . . . . . . . . . . . . . . . . @ e.W.r.u.7.x               ",
"                    2.P.Y.P.8.L / D.K.K.V.x.C.n.F m v t 6 4 1 $ X . . . . . . . . . . . . . . . . . @ e.I.i.u.0.                ",
"                    2.t.P.U.8.P / S.D.L.S.b.C.n.F V v 6 5 2 $ o . . . . . . . . . . . . . . . . . . - 7.p.r.w.7.x               ",
"                    2.r.N.a.5.P / S.D.L.G.M.Z.M.( C b w 5 2 $ X . . . . . . . . . . . . . . . . . . @ 6.u.7.6.6.x               ",
"                    3.r.a.9.5.^ / D.K.L.A.m.Z.N.G V b v 2 2 # X . . . . . . . . . . . . . . . . . . ; 1.r.7.2.2.x               ",
"                  j 2.8.7.2.:.I / S.K.K.A.n.M.x.H V n v 4 2 # X . . . . . . . . . . . . . . . . . . & >.e.7.6.2.x               ",
"                  c @.%.=.O.^ L / S.D.K.S.x.m.k.D m b w 5 2 # X . . . . . . . . . . . . . . . . . . - @.%.;.=.%.c               ",
"              2.a.I.W.W.I.I.0.L / C.C.K.D.v.v.j.G V v v 5 2 # X . . . . . . . . . . . . . . . . . . & 1.a.I.I.a.r.u.0.>.        ",
"              0.U.P.I.Y.Y.P.4.I / D.K.K.F.x.k.j.H b v v 6 2 o X . . . . . . . . . . . . . . . . . . @ 0.p.r.r.t.p.Y.p.>.        ",
"              0.a.i.a.a.a.I.5.^ / S.D.D.A.j.j.s.S b t v 5 2 o . . . . . . . . . . . . . . . . . . . - 7.r.3.0.p.W.Y.I.O.        ",
"              r.i.p.W.I.e.e.2.J / S.C.D.A.f.f.g.D b t 6 5 1 X . . . . . . . . . . . . . . . . . . . - 0.p.8.w.U.W.U.I.<.        ",
"              i.p.I.Y.a.r.w.2.P / C.m.C.A.g.f.s.Z v 6 6 5 1 . . . . . . . . . . . . . . . . . . . . @ e.T.y.y.P.N.a.u.O.        ",
"              u.I.p.N.W.r.w.,._ ~ M.x.C.b.s.s.{ Z v 5 6 2 X . . . . . . . . . . . . . . . . . . . . - 9.T.U.U.U.W.u.e.<.        ",
"              w.P.P.P.P.w.w.2.) ( M.g.v.x.{ ~ ~ V t 6 2 . . . . . . . . . . . . . . . . . . . . . . @ 6.I.U.y.p.I.P.9.;.        ",
"              2.w.w.w.8.4.2.;.J / n.g.v.h.E E W V v 2 X . . . . . . . . . . . . . . O . . . . O . . ; =.0.r.e.0.e.5.2.=.        ",
"              @.=.;.$.=.>.:.$.L / n.d.j.| R E R C 5                                               + , +.%.=.;.;.;.O.            ",
"                  k 2.I.I.I.2.P / n.s.d.| H E E t                                                   , >.a.W.Y.0.                ",
"                    2.e.y.P.8.L / b.| s.{ H E B                                                     , 9.U.e.r.8.                ",
"                    2.r.i.i.7.L / b.| ~ ~ Z C                                                       u e.U.t.t.9.                ",
"                    4.P.r.r.8.L ' z.~ ~ ~ v                                                         i 9.P.t.i.w.                ",
"                    8.P.r.r.7.L Q l.~ s.R                                                             7.i.r.u.r.                ",
"                    4.P.r.w.2.L / z.E R                                                               1.r.i.P.t.                ",
"                    2.e.7.7.>.L / z.N                                                                 >.r.i.Y.i.                ",
"                    :.2.2.2.=.h w M                                                                   =.7.7.9.7.                ",
"                      x x x k i                                                                       k k c c O.                "
};
